<?xml version="1.0" encoding="UTF-8" standalone="no"?>
<svg
   xmlns:osb="http://www.openswatchbook.org/uri/2009/osb"
   xmlns:dc="http://purl.org/dc/elements/1.1/"
   xmlns:cc="http://creativecommons.org/ns#"
   xmlns:rdf="http://www.w3.org/1999/02/22-rdf-syntax-ns#"
   xmlns:svg="http://www.w3.org/2000/svg"
   xmlns="http://www.w3.org/2000/svg"
   xmlns:sodipodi="http://sodipodi.sourceforge.net/DTD/sodipodi-0.dtd"
   xmlns:inkscape="http://www.inkscape.org/namespaces/inkscape"
   width="383"
   height="243"
   viewBox="0 0 101.33541 64.293752"
   version="1.1"
   id="svg8"
   inkscape:version="1.0.1 (3bc2e813f5, 2020-09-07)"
   sodipodi:docname="background_caisse_epargne.svg">
  <defs
     id="defs2">
    <linearGradient
       id="linearGradient3064"
       osb:paint="solid">
      <stop
         style="stop-color:#060e1b;stop-opacity:1;"
         offset="0"
         id="stop3062" />
    </linearGradient>
  </defs>
  <sodipodi:namedview
     id="base"
     pagecolor="#ffffff"
     bordercolor="#666666"
     borderopacity="1.0"
     inkscape:pageopacity="0.0"
     inkscape:pageshadow="2"
     inkscape:zoom="1.979899"
     inkscape:cx="165.24656"
     inkscape:cy="127.09197"
     inkscape:document-units="mm"
     inkscape:current-layer="layer1"
     inkscape:document-rotation="0"
     showgrid="false"
     units="px"
     inkscape:window-width="2400"
     inkscape:window-height="1271"
     inkscape:window-x="2391"
     inkscape:window-y="-9"
     inkscape:window-maximized="1" />
  <metadata
     id="metadata5">
    <rdf:RDF>
      <cc:Work
         rdf:about="">
        <dc:format>image/svg+xml</dc:format>
        <dc:type
           rdf:resource="http://purl.org/dc/dcmitype/StillImage" />
        <dc:title></dc:title>
      </cc:Work>
    </rdf:RDF>
  </metadata>
  <g
     inkscape:label="Calque 1"
     inkscape:groupmode="layer"
     id="layer1">
    <g
       id="g180"
       transform="matrix(0.20108522,0,0,0.19520557,78.33033,37.030405)"
       style="mix-blend-mode:normal;fill:#060e1b;fill-opacity:1;fill-rule:nonzero;stroke-width:0.999235;stroke-miterlimit:4;stroke-dasharray:none">
      <polygon
         class="st2"
         points="93.2,84.8 90.5,89.2 69,89.2 71.8,84.8 "
         id="polygon121"
         style="fill:#060e1b;fill-opacity:1;fill-rule:nonzero;stroke-width:0.999235;stroke-miterlimit:4;stroke-dasharray:none" />
      <polygon
         class="st2"
         points="94.4,103.4 91.7,107.8 53.5,107.8 56.2,103.4 "
         id="polygon123"
         style="fill:#060e1b;fill-opacity:1;fill-rule:nonzero;stroke-width:0.999235;stroke-miterlimit:4;stroke-dasharray:none" />
      <polygon
         class="st2"
         points="82.9,78.1 81.2,75.3 87.4,71.3 82.5,63.4 85.3,61.7 92.1,72.4 "
         id="polygon125"
         style="fill:#060e1b;fill-opacity:1;fill-rule:nonzero;stroke-width:0.999235;stroke-miterlimit:4;stroke-dasharray:none" />
      <polygon
         class="st2"
         points="56.5,71.1 53.8,75.5 24.5,75.5 27.2,71.1 "
         id="polygon127"
         style="fill:#060e1b;fill-opacity:1;fill-rule:nonzero;stroke-width:0.999235;stroke-miterlimit:4;stroke-dasharray:none" />
      <path
         class="st2"
         d="m 79.7,70.9 c 1.5,0 2.8,-1.2 2.8,-2.8 0,-1.6 -1.2,-2.8 -2.8,-2.8 -1.5,0 -2.8,1.2 -2.8,2.8 0,1.6 1.3,2.8 2.8,2.8"
         id="path129"
         style="fill:#060e1b;fill-opacity:1;fill-rule:nonzero;stroke-width:0.999235;stroke-miterlimit:4;stroke-dasharray:none" />
      <polygon
         class="st2"
         points="61.4,63.3 58.6,67.7 29.3,67.7 32.1,63.3 "
         id="polygon131"
         style="fill:#060e1b;fill-opacity:1;fill-rule:nonzero;stroke-width:0.999235;stroke-miterlimit:4;stroke-dasharray:none" />
      <polygon
         class="st2"
         points="66.2,55.5 63.5,59.8 34.2,59.8 36.9,55.5 "
         id="polygon133"
         style="fill:#060e1b;fill-opacity:1;fill-rule:nonzero;stroke-width:0.999235;stroke-miterlimit:4;stroke-dasharray:none" />
      <path
         class="st2"
         d="M 98.6,26.9 C 73,39.6 35.9,54.3 35.9,84.3 c 0,11.2 6.4,19.3 12.9,22.4 l 33,-52.8 -2.6,-4.1 -31.6,50.6 c -3.3,-2.4 -7.4,-8.7 -7.4,-17 0,-23.1 29.2,-38.3 54.4,-50 z"
         id="path135"
         style="fill:#060e1b;fill-opacity:1;fill-rule:nonzero;stroke-width:0.999235;stroke-miterlimit:4;stroke-dasharray:none" />
    </g>
  </g>
</svg>
