<?xml version="1.0" encoding="UTF-8" standalone="no"?>
<svg
   xmlns:osb="http://www.openswatchbook.org/uri/2009/osb"
   xmlns:dc="http://purl.org/dc/elements/1.1/"
   xmlns:cc="http://creativecommons.org/ns#"
   xmlns:rdf="http://www.w3.org/1999/02/22-rdf-syntax-ns#"
   xmlns:svg="http://www.w3.org/2000/svg"
   xmlns="http://www.w3.org/2000/svg"
   xmlns:sodipodi="http://sodipodi.sourceforge.net/DTD/sodipodi-0.dtd"
   xmlns:inkscape="http://www.inkscape.org/namespaces/inkscape"
   width="383"
   height="243"
   viewBox="0 0 101.33541 64.293752"
   version="1.1"
   id="svg8"
   inkscape:version="1.0.1 (3bc2e813f5, 2020-09-07)"
   sodipodi:docname="background_caisse_epargne.svg">
  <defs
     id="defs2">
    <linearGradient
       id="linearGradient3064"
       osb:paint="solid">
      <stop
         style="stop-color:#060e1b;stop-opacity:1;"
         offset="0"
         id="stop3062" />
    </linearGradient>
  </defs>
  <sodipodi:namedview
     id="base"
     pagecolor="#ffffff"
     bordercolor="#666666"
     borderopacity="1.0"
     inkscape:pageopacity="0.0"
     inkscape:pageshadow="2"
     inkscape:zoom="2.8"
     inkscape:cx="159.9264"
     inkscape:cy="191.70014"
     inkscape:document-units="mm"
     inkscape:current-layer="layer1"
     inkscape:document-rotation="0"
     showgrid="false"
     units="px"
     inkscape:window-width="2400"
     inkscape:window-height="1271"
     inkscape:window-x="-9"
     inkscape:window-y="-9"
     inkscape:window-maximized="1" />
  <metadata
     id="metadata5">
    <rdf:RDF>
      <cc:Work
         rdf:about="">
        <dc:format>image/svg+xml</dc:format>
        <dc:type
           rdf:resource="http://purl.org/dc/dcmitype/StillImage" />
        <dc:title></dc:title>
      </cc:Work>
    </rdf:RDF>
  </metadata>
  <g
     inkscape:label="Calque 1"
     inkscape:groupmode="layer"
     id="layer1">
    <g
       id="g1109"
       transform="translate(27.319025)">
      <rect
         x="55.045975"
         y="42.280998"
         class="st1"
         width="15.792"
         height="15.792"
         id="rect34"
         style="clip-rule:evenodd;fill:#ed1c2e;fill-rule:evenodd;stroke-width:0.172026" />
      <g
         id="g1097"
         transform="translate(0.23467357,-0.710849)">
        <polygon
           class="st2"
           points="93.2,84.8 90.5,89.2 69,89.2 71.8,84.8 "
           id="polygon36"
           transform="matrix(0.17202614,0,0,0.17202614,51.284686,38.794345)"
           style="clip-rule:evenodd;fill:#ffffff;fill-rule:evenodd" />
        <polygon
           class="st2"
           points="94.4,103.4 91.7,107.8 53.5,107.8 56.2,103.4 "
           id="polygon38"
           transform="matrix(0.17202614,0,0,0.17202614,51.284686,38.794345)"
           style="clip-rule:evenodd;fill:#ffffff;fill-rule:evenodd" />
        <polygon
           class="st2"
           points="85.3,61.7 92.1,72.4 82.9,78.1 81.2,75.3 87.4,71.3 82.5,63.4 "
           id="polygon40"
           transform="matrix(0.17202614,0,0,0.17202614,51.284686,38.794345)"
           style="clip-rule:evenodd;fill:#ffffff;fill-rule:evenodd" />
        <polygon
           class="st2"
           points="56.5,71.1 53.8,75.5 24.5,75.5 27.2,71.1 "
           id="polygon42"
           transform="matrix(0.17202614,0,0,0.17202614,51.284686,38.794345)"
           style="clip-rule:evenodd;fill:#ffffff;fill-rule:evenodd" />
        <path
           class="st2"
           d="m 64.995168,50.990999 c 0.25804,0 0.48167,-0.206432 0.48167,-0.481674 0,-0.275241 -0.20643,-0.481673 -0.48167,-0.481673 -0.25804,0 -0.48167,0.206432 -0.48167,0.481673 0,0.275242 0.22363,0.481674 0.48167,0.481674"
           id="path44"
           style="clip-rule:evenodd;fill:#ffffff;fill-rule:evenodd;stroke-width:0.172026" />
        <polygon
           class="st2"
           points="61.4,63.3 58.6,67.7 29.3,67.7 32.1,63.3 "
           id="polygon46"
           transform="matrix(0.17202614,0,0,0.17202614,51.284686,38.794345)"
           style="clip-rule:evenodd;fill:#ffffff;fill-rule:evenodd" />
        <polygon
           class="st2"
           points="66.2,55.5 63.5,59.8 34.2,59.8 36.9,55.5 "
           id="polygon48"
           transform="matrix(0.17202614,0,0,0.17202614,51.284686,38.794345)"
           style="clip-rule:evenodd;fill:#ffffff;fill-rule:evenodd" />
        <path
           class="st2"
           d="m 68.246468,43.421849 c -4.40387,2.184731 -10.786044,4.713516 -10.786044,9.8743 0,1.926693 1.100968,3.320105 2.219134,3.853386 l 5.67687,-9.082981 -0.44727,-0.705307 -5.43603,8.704523 c -0.56768,-0.412863 -1.272991,-1.496627 -1.272991,-2.924445 0,-3.973804 5.023161,-6.588601 9.358221,-8.601307 z"
           id="path50"
           style="clip-rule:evenodd;fill:#ffffff;fill-rule:evenodd;stroke-width:0.172026" />
      </g>
    </g>
  </g>
</svg>
