<?xml version="1.0" encoding="UTF-8" standalone="no"?>
<svg
   xmlns:dc="http://purl.org/dc/elements/1.1/"
   xmlns:cc="http://creativecommons.org/ns#"
   xmlns:rdf="http://www.w3.org/1999/02/22-rdf-syntax-ns#"
   xmlns:svg="http://www.w3.org/2000/svg"
   xmlns="http://www.w3.org/2000/svg"
   xmlns:sodipodi="http://sodipodi.sourceforge.net/DTD/sodipodi-0.dtd"
   xmlns:inkscape="http://www.inkscape.org/namespaces/inkscape"
   version="1.1"
   id="layer"
   x="0px"
   y="0px"
   viewBox="0 0 18 18"
   xml:space="preserve"
   sodipodi:docname="Caisse_depargne_Logo_bank.svg"
   width="18"
   height="18"
   inkscape:version="1.0.1 (3bc2e813f5, 2020-09-07)"><metadata
   id="metadata61"><rdf:RDF><cc:Work
       rdf:about=""><dc:format>image/svg+xml</dc:format><dc:type
         rdf:resource="http://purl.org/dc/dcmitype/StillImage" /><dc:title></dc:title></cc:Work></rdf:RDF></metadata><defs
   id="defs59">
	
	
	
	
	
	
	
	
	
	
	
	
	
	
	
	
	
	
	
	
	
	
	
	
</defs><sodipodi:namedview
   pagecolor="#ffffff"
   bordercolor="#666666"
   borderopacity="1"
   objecttolerance="10"
   gridtolerance="10"
   guidetolerance="10"
   inkscape:pageopacity="0"
   inkscape:pageshadow="2"
   inkscape:window-width="1920"
   inkscape:window-height="1017"
   id="namedview57"
   showgrid="false"
   fit-margin-top="0"
   fit-margin-left="0"
   fit-margin-right="0"
   fit-margin-bottom="0"
   inkscape:zoom="10.619616"
   inkscape:cx="39.817533"
   inkscape:cy="18.449455"
   inkscape:window-x="-8"
   inkscape:window-y="-8"
   inkscape:window-maximized="1"
   inkscape:current-layer="layer" />
<style
   type="text/css"
   id="style2">
	.st0{fill-rule:evenodd;clip-rule:evenodd;fill:#77787B;}
	.st1{fill-rule:evenodd;clip-rule:evenodd;fill:#ED1C2E;}
	.st2{fill-rule:evenodd;clip-rule:evenodd;fill:#FFFFFF;}
</style>

<g
   id="g918"
   style="fill:#ffffff;fill-opacity:1"
   transform="matrix(0.20964601,0,0,0.20964601,-3.9037119,-5.1196588)"><polygon
     class="st2"
     points="90.5,89.2 69,89.2 71.8,84.8 93.2,84.8 "
     id="polygon36"
     style="fill:#ffffff;fill-opacity:1" /><polygon
     class="st2"
     points="91.7,107.8 53.5,107.8 56.2,103.4 94.4,103.4 "
     id="polygon38"
     style="fill:#ffffff;fill-opacity:1" /><polygon
     class="st2"
     points="92.1,72.4 82.9,78.1 81.2,75.3 87.4,71.3 82.5,63.4 85.3,61.7 "
     id="polygon40"
     style="fill:#ffffff;fill-opacity:1" /><polygon
     class="st2"
     points="53.8,75.5 24.5,75.5 27.2,71.1 56.5,71.1 "
     id="polygon42"
     style="fill:#ffffff;fill-opacity:1" /><path
     class="st2"
     d="m 79.7,70.9 c 1.5,0 2.8,-1.2 2.8,-2.8 0,-1.6 -1.2,-2.8 -2.8,-2.8 -1.5,0 -2.8,1.2 -2.8,2.8 0,1.6 1.3,2.8 2.8,2.8"
     id="path44"
     style="fill:#ffffff;fill-opacity:1" /><polygon
     class="st2"
     points="58.6,67.7 29.3,67.7 32.1,63.3 61.4,63.3 "
     id="polygon46"
     style="fill:#ffffff;fill-opacity:1" /><polygon
     class="st2"
     points="63.5,59.8 34.2,59.8 36.9,55.5 66.2,55.5 "
     id="polygon48"
     style="fill:#ffffff;fill-opacity:1" /><path
     class="st2"
     d="M 98.6,26.9 C 73,39.6 35.9,54.3 35.9,84.3 c 0,11.2 6.4,19.3 12.9,22.4 l 33,-52.8 -2.6,-4.1 -31.6,50.6 c -3.3,-2.4 -7.4,-8.7 -7.4,-17 0,-23.1 29.2,-38.3 54.4,-50 z"
     id="path50"
     style="fill:#ffffff;fill-opacity:1" /></g>
</svg>
