<?xml version="1.0" encoding="utf-8"?>
<!-- Generator: Adobe Illustrator 23.1.1, SVG Export Plug-In . SVG Version: 6.00 Build 0)  -->
<svg version="1.1" id="layer" xmlns="http://www.w3.org/2000/svg" xmlns:xlink="http://www.w3.org/1999/xlink" x="0px" y="0px"
	 viewBox="0 0 652 135" style="enable-background:new 0 0 652 135;" xml:space="preserve">
<style type="text/css">
	.st0{fill-rule:evenodd;clip-rule:evenodd;fill:#77787B;}
	.st1{fill-rule:evenodd;clip-rule:evenodd;fill:#ED1C2E;}
	.st2{fill-rule:evenodd;clip-rule:evenodd;fill:#FFFFFF;}
</style>
<polygon class="st0" points="206.9,77.8 199.8,77.8 203.8,47.8 210.9,47.8 "/>
<g>
	<path class="st0" d="M240.3,55.7c-2.9-1.7-4.9-2.6-6.9-2.6c-1.8,0-3.1,1.1-3.1,2.5c0,1.3,0.9,2.5,3.7,4.6c4.3,3.2,5.7,5.9,5.7,9
		c0,2.7-0.9,5.2-2.8,6.9c-1.9,1.7-3.6,2.7-7,2.7c-4.5,0-8.2-1.5-10.5-3l1.5-6.2c1.1,0.7,1.7,1.2,3.1,1.9c2,1,3.1,1.5,4.8,1.5
		c2.6,0,3.6-1.6,3.6-2.9c0-1.5-1.2-3.1-4.4-5.5c-2.2-1.7-5-4.1-5-8.7c0-4.2,3.8-8.7,10-8.7c3.3,0,6.8,1.6,8.2,2.4L240.3,55.7z"/>
	<path class="st0" d="M155,54.4c-1.9-0.5-3.1-0.6-5.2-0.6c-7.6,0-12.6,4.3-12.6,10.7c0,4.6,2.5,7.7,7.4,7.7c4.1,0,7.5-2.1,9.6-3.4
		l-1.1,7.9c-2.5,1.3-5.6,2.2-8.9,2.2c-9.4,0-14.3-5.8-14.3-14.1c0-10.7,7.4-17.9,19.7-17.9c2.6,0,3.8,0.2,6.6,0.9L155,54.4z"/>
	<path class="st0" d="M188.8,77.8h-7.3l-0.9-5.4h-8.5l-2.4,5.4h-7.3L176,47.7h7.2L188.8,77.8z M180.1,67c-0.9-2.9-1.4-11.1-1.4-11.1
		s-3.1,8.6-4.4,11.1H180.1z"/>
	<path class="st0" d="M270.7,55.7c-2.9-1.7-4.9-2.6-6.9-2.6c-1.8,0-3.1,1.1-3.1,2.5c0,1.3,0.9,2.5,3.7,4.6c4.3,3.2,5.7,5.9,5.7,9
		c0,2.7-0.9,5.2-2.8,6.9c-1.9,1.7-3.6,2.7-7,2.7c-4.5,0-8.2-1.5-10.5-3l1.5-6.2c1.1,0.7,1.7,1.2,3.1,1.9c2,1,3.1,1.5,4.8,1.5
		c2.6,0,3.6-1.6,3.6-2.9c0-1.5-1.2-3.1-4.4-5.5c-2.2-1.7-5-4.1-5-8.7c0-4.2,3.8-8.7,10-8.7c3.3,0,6.8,1.6,8.2,2.4L270.7,55.7z"/>
	<polygon class="st0" points="304,54 292.1,54 291.4,59.2 302.3,59.2 301.4,65.5 290.5,65.5 289.7,71.6 304.1,71.6 303.2,77.8 
		281.6,77.8 285.7,47.7 304.8,47.7 	"/>
	<polygon class="st0" points="402,54 390.1,54 389.4,59.2 400.3,59.2 399.4,65.5 388.5,65.5 387.7,71.6 402.1,71.6 401.3,77.8 
		379.7,77.8 383.7,47.7 402.8,47.7 	"/>
	<polygon class="st0" points="619.7,54 607.9,54 607.1,59.2 618,59.2 617.2,65.5 606.3,65.5 605.5,71.6 619.9,71.6 619,77.8 
		597.4,77.8 601.5,47.7 620.5,47.7 	"/>
	<path class="st0" d="M467.6,77.8h-7.3l-0.9-5.4h-8.5l-2.4,5.4h-7.3l13.6-30.1h7.2L467.6,77.8z M458.8,67
		c-0.9-2.9-1.4-11.1-1.4-11.1s-3.1,8.6-4.4,11.1H458.8z"/>
	<path class="st0" d="M341,47.8c6.2,0,7.5,0.5,9.9,1.7c4.6,2.3,7.2,6.9,7.2,12.9c0,4.9-1.2,8.1-3.7,10.9c-2.5,2.9-7.2,4.5-9.9,4.5
		c-0.7,0-4.8,0-4.8,0h-9.8l4-30H341z M337.8,71.6h3.3c2.1,0,5.5-0.4,7.3-2.5c1.6-1.8,2.3-3.6,2.3-6.7c0-2.9-1.1-4.8-2.1-5.8
		c-1.5-1.4-3-2.2-6.3-2.2h-2L337.8,71.6z"/>
	<polygon class="st0" points="368.1,47.7 364.4,55.7 368.7,55.7 376.7,47.7 	"/>
	<path class="st0" d="M424.6,47.7h3.1c5.2,0,9.8,3.4,9.8,8.9c0,3.5-2,10-10,10h-3H423l-1.5,11.2h-7.2l4.1-30h6.2V47.7z M423.7,61.2
		h1c1.6,0,2.4-0.1,3.2-0.6c0.9-0.5,2.2-1.5,2.2-3.4c0-1.1-0.3-1.8-1-2.5c-0.9-0.8-1.7-1.1-3.6-1.1h-0.7L423.7,61.2z"/>
	<path class="st0" d="M489.3,47.7h2.7c6.9,0,9.3,5.2,9.3,8.8c0,2.8-1.3,5.3-3,6.4c-1.2,0.8-1.8,1.1-2.7,1.4l-0.2,0.1
		c1.7,1,3,3.1,4.2,5.6l3.8,7.7h-8l-3-6.3c-1.9-4-2.5-5.1-4-5.7c-0.6-0.3-1-0.3-1.4-0.3h-0.5l-1.6,12.3h-7l4-30.1h7.4V47.7z
		 M487.4,60.4h1.5c1.8,0,2.8-0.2,3.4-0.6c1.2-0.7,1.8-1.9,1.8-2.9c0-0.9-0.4-1.7-1-2.3c-0.7-0.7-2-1.1-4-1.1h-0.9L487.4,60.4z"/>
	<path class="st0" d="M541.7,54.5c-3-0.6-4-0.8-6.8-0.8c-11.6,0-14.6,6.6-14.6,10.4c0,5.3,4.1,8.2,9.7,8.2c1.5,0,2-0.1,2.5-0.3
		l0.7-4.8h-5.8l0.8-5.7h12.7l-2.2,16.1c-2.8,0.6-5.8,0.9-8.7,0.9c-6.2,0-10-1.5-13.2-4.5c-2.7-2.6-3.8-5.5-3.8-9.7
		c0-10.1,8.1-17.2,21.1-17.2c3.5,0,6.7,0.3,8.6,1L541.7,54.5z"/>
	<polygon class="st0" points="563.5,63.5 561.7,77.8 554.8,77.8 558.8,47.8 565.6,47.8 573,61.1 576,67.4 576.5,61.6 578.3,47.8 
		585.2,47.8 581.2,77.8 574.5,77.8 567.4,64.6 564,57.5 	"/>
	<rect x="20.5" y="24.4" class="st1" width="91.8" height="91.8"/>
	<polygon class="st2" points="71.8,84.8 93.2,84.8 90.5,89.2 69,89.2 	"/>
	<polygon class="st2" points="56.2,103.4 94.4,103.4 91.7,107.8 53.5,107.8 	"/>
	<polygon class="st2" points="82.5,63.4 85.3,61.7 92.1,72.4 82.9,78.1 81.2,75.3 87.4,71.3 	"/>
	<polygon class="st2" points="27.2,71.1 56.5,71.1 53.8,75.5 24.5,75.5 	"/>
	<path class="st2" d="M79.7,70.9c1.5,0,2.8-1.2,2.8-2.8s-1.2-2.8-2.8-2.8c-1.5,0-2.8,1.2-2.8,2.8S78.2,70.9,79.7,70.9"/>
	<polygon class="st2" points="32.1,63.3 61.4,63.3 58.6,67.7 29.3,67.7 	"/>
	<polygon class="st2" points="36.9,55.5 66.2,55.5 63.5,59.8 34.2,59.8 	"/>
	<path class="st2" d="M98.6,26.9C73,39.6,35.9,54.3,35.9,84.3c0,11.2,6.4,19.3,12.9,22.4l33-52.8l-2.6-4.1l-31.6,50.6
		c-3.3-2.4-7.4-8.7-7.4-17c0-23.1,29.2-38.3,54.4-50L98.6,26.9z"/>
	<polygon class="st1" points="131.2,84.8 619.1,84.8 616.4,89 128.5,89 	"/>
</g>
</svg>
