<?xml version="1.0" encoding="UTF-8" standalone="no"?>
<svg
   xmlns:dc="http://purl.org/dc/elements/1.1/"
   xmlns:cc="http://creativecommons.org/ns#"
   xmlns:rdf="http://www.w3.org/1999/02/22-rdf-syntax-ns#"
   xmlns:svg="http://www.w3.org/2000/svg"
   xmlns="http://www.w3.org/2000/svg"
   xmlns:sodipodi="http://sodipodi.sourceforge.net/DTD/sodipodi-0.dtd"
   xmlns:inkscape="http://www.inkscape.org/namespaces/inkscape"
   viewBox="0 0 42.666667 42.666667"
   fill="#ffffff"
   width="64"
   height="64"
   version="1.1"
   id="svg6"
   sodipodi:docname="car-checked-36dp.svg"
   inkscape:version="1.0.1 (3bc2e813f5, 2020-09-07)">
  <metadata
     id="metadata12">
    <rdf:RDF>
      <cc:Work
         rdf:about="">
        <dc:format>image/svg+xml</dc:format>
        <dc:type
           rdf:resource="http://purl.org/dc/dcmitype/StillImage" />
        <dc:title></dc:title>
      </cc:Work>
    </rdf:RDF>
  </metadata>
  <defs
     id="defs10" />
  <sodipodi:namedview
     pagecolor="#ffffff"
     bordercolor="#666666"
     borderopacity="1"
     objecttolerance="10"
     gridtolerance="10"
     guidetolerance="10"
     inkscape:pageopacity="0"
     inkscape:pageshadow="2"
     inkscape:window-width="1920"
     inkscape:window-height="1001"
     id="namedview8"
     showgrid="false"
     inkscape:zoom="8.1513698"
     inkscape:cx="32.697869"
     inkscape:cy="22.299747"
     inkscape:window-x="4791"
     inkscape:window-y="-9"
     inkscape:window-maximized="1"
     inkscape:current-layer="svg6"
     inkscape:document-rotation="0" />
  <path
     d="M 0,0 H 24 V 24 H 0 Z"
     fill="none"
     id="path2" />
  <circle
     style="fill:#498df4;fill-opacity:1;stroke-width:1.89618"
     id="path837"
     cx="21.333334"
     cy="21.333334"
     r="17.333334" />
  <path
     d="M 28.02805,14.570897 C 27.83456,14.000105 27.292791,13.593778 26.654278,13.593778 H 16.012389 c -0.638514,0 -1.170608,0.406327 -1.373772,0.977119 l -1.905865,5.48541 c -0.06772,0.203163 -0.106419,0.416001 -0.106419,0.638513 v 6.926903 c 0,0.802978 0.648188,1.451166 1.451167,1.451166 0.802979,0 1.451166,-0.648188 1.451166,-1.451166 V 27.138 H 27.138 v 0.483723 c 0,0.793304 0.648189,1.451166 1.451166,1.451166 0.793305,0 1.451168,-0.648188 1.451168,-1.451166 V 20.69482 c 0,-0.212838 -0.0387,-0.43535 -0.106419,-0.638513 z m -12.015661,9.66477 c -0.802979,0 -1.451167,-0.648188 -1.451167,-1.451167 0,-0.802979 0.648188,-1.451166 1.451167,-1.451166 0.802978,0 1.451166,0.648187 1.451166,1.451166 0,0.802979 -0.648188,1.451167 -1.451166,1.451167 z m 10.641889,0 c -0.802979,0 -1.451167,-0.648188 -1.451167,-1.451167 0,-0.802979 0.648188,-1.451166 1.451167,-1.451166 0.802978,0 1.451166,0.648187 1.451166,1.451166 0,0.802979 -0.648188,1.451167 -1.451166,1.451167 z m -12.093056,-4.837222 1.228654,-3.695638 c 0.135443,-0.386978 0.503071,-0.657862 0.919073,-0.657862 h 9.248769 c 0.416001,0 0.78363,0.270884 0.919072,0.657862 l 1.228654,3.695638 z"
     id="path4"
     style="stroke-width:0.967444" />
</svg>
