<?xml version="1.0" encoding="UTF-8" standalone="no"?>
<!-- Generator: Adobe Illustrator 13.0.0, SVG Export Plug-In . SVG Version: 6.00 Build 14948)  -->

<svg
   xmlns:dc="http://purl.org/dc/elements/1.1/"
   xmlns:cc="http://creativecommons.org/ns#"
   xmlns:rdf="http://www.w3.org/1999/02/22-rdf-syntax-ns#"
   xmlns:svg="http://www.w3.org/2000/svg"
   xmlns="http://www.w3.org/2000/svg"
   xmlns:sodipodi="http://sodipodi.sourceforge.net/DTD/sodipodi-0.dtd"
   xmlns:inkscape="http://www.inkscape.org/namespaces/inkscape"
   version="1.0"
   id="Calque_1"
   x="0px"
   y="0px"
   width="741.34723"
   height="512.53784"
   viewBox="0 0 879.72857 879.72859"
   enable-background="new 0 0 192.756 192.756"
   xml:space="preserve"
   sodipodi:version="0.32"
   inkscape:version="0.92.2 (5c3e80d, 2017-08-06)"
   sodipodi:docname="20130920124816!Crédit_Agricole.svg"
   inkscape:output_extension="org.inkscape.output.svg.inkscape"><metadata
     id="metadata18"><rdf:RDF><cc:Work
         rdf:about=""><dc:format>image/svg+xml</dc:format><dc:type
           rdf:resource="http://purl.org/dc/dcmitype/StillImage" /><dc:title></dc:title></cc:Work></rdf:RDF></metadata><defs
     id="defs16"><inkscape:perspective
       sodipodi:type="inkscape:persp3d"
       inkscape:vp_x="0 : 96.377999 : 1"
       inkscape:vp_y="0 : 1000 : 0"
       inkscape:vp_z="192.756 : 96.377999 : 1"
       inkscape:persp3d-origin="96.377997 : 64.252 : 1"
       id="perspective20" /></defs><sodipodi:namedview
     inkscape:window-height="705"
     inkscape:window-width="1366"
     inkscape:pageshadow="2"
     inkscape:pageopacity="0.0"
     guidetolerance="10.0"
     gridtolerance="10.0"
     objecttolerance="10.0"
     borderopacity="1.0"
     bordercolor="#666666"
     pagecolor="#ffffff"
     id="base"
     showgrid="false"
     fit-margin-top="0"
     fit-margin-left="0"
     fit-margin-right="0"
     fit-margin-bottom="0"
     inkscape:zoom="0.97968464"
     inkscape:cx="283.1517"
     inkscape:cy="255.01363"
     inkscape:window-x="-8"
     inkscape:window-y="-8"
     inkscape:window-maximized="1"
     inkscape:current-layer="g3" /><g
     id="g3"
     transform="translate(319.39838,310.82003)"><g
       id="g821"
       transform="matrix(4.5595761,0,0,4.5595761,-440.36219,-467.33137)"><path
         inkscape:connector-curvature="0"
         style="clip-rule:evenodd;fill:#ed1b2f;fill-opacity:1;fill-rule:evenodd"
         id="path9"
         d="M 262.53396,59.148925 212.88782,86.22849 c -3.92634,1.943501 -8.10667,1.420755 -10.9072,-0.940616 -4.32454,-4.88825 -6.39259,-11.846183 -8.087,-17.488236 0,0 6.18446,-1.568239 11.09565,-3.970578 8.64908,-4.512987 57.54305,-29.503206 57.54305,-29.503206 v 24.823071 z" /><path
         inkscape:connector-curvature="0"
         style="clip-rule:evenodd;fill:#006a4e;fill-opacity:1;fill-rule:evenodd"
         id="path11"
         d="m 149.23896,80.586436 -19.47107,40.995424 c -2.19422,4.59165 -4.51299,11.84783 -10.34349,15.23339 -11.84618,8.27381 -40.99707,12.59833 -40.99707,12.59833 l -2.020518,0.26875 c 0,0 36.983888,-69.690743 54.849018,-102.223912 h 39.50586 l 63.44565,140.592502 h -0.63417 -37.79832 c -6.81701,0 -6.34834,-5.65516 -13.54061,-23.78084 -1.50268,-4.13609 -32.99528,-83.683644 -32.99528,-83.683644 z" /><path
         inkscape:connector-curvature="0"
         style="clip-rule:evenodd;fill:#009597;fill-opacity:1;fill-rule:evenodd"
         id="path7"
         d="m 102.12625,53.506872 c 2.25649,6.58103 4.13609,13.352149 5.26515,20.121631 -37.046151,0.752165 -68.074991,19.744732 -91.582183,47.389637 -6.4417407,8.48521 -14.1026769,18.42886 -8.6507117,29.71297 7.8526627,15.56112 39.1158367,12.50494 59.2374697,9.77814 20.780393,-3.85423 36.293995,-8.27382 53.595425,-15.42019 4.88989,-1.88124 14.47957,-5.64206 14.47957,-5.64206 l 9.02762,-4.32454 18.05523,-9.21442 4.88824,-2.44495 31.53684,-16.877 64.55834,-35.495937 v 31.310697 l -51.71583,31.02884 -33.47214,18.42885 c 0,0 -48.14346,23.13028 -73.71705,30.65193 -3.878815,1.17823 -5.407722,1.64525 -9.779781,2.63339 -24.634618,4.88662 -53.595414,8.65072 -76.537253,-2.25649 -12.223085,-5.64205 -22.7550286,-17.41777 -28.162749,-29.33605 -2.254854,-4.88662 -3.408501,-9.96659 -4.349117,-15.23174 0,-1.88124 -0.352321,-4.58346 -0.352321,-6.20741 0,-27.17297 20.6394628,-47.764912 40.195743,-62.996654 4.136086,-3.197109 11.118598,-7.711736 13.868341,-9.191484 3.056182,-1.645258 8.227928,-3.737882 12.929366,-5.994376 9.166905,-3.995157 20.333026,-7.875606 31.310695,-8.698235 7.944427,-0.352321 16.360806,0.376903 19.371106,8.275451 z" /><polygon
         transform="matrix(1.6387029,0,0,1.6387029,-39.860797,-23.854652)"
         style="clip-rule:evenodd;fill:#006a4e;fill-opacity:1;fill-rule:evenodd"
         id="polygon13"
         points="172.254,139.59 172.254,153.244 14.233,153.244 14.233,139.59 " /></g></g></svg>