<?xml version="1.0" encoding="UTF-8" standalone="no"?>
<svg
   xmlns:dc="http://purl.org/dc/elements/1.1/"
   xmlns:cc="http://creativecommons.org/ns#"
   xmlns:rdf="http://www.w3.org/1999/02/22-rdf-syntax-ns#"
   xmlns:svg="http://www.w3.org/2000/svg"
   xmlns="http://www.w3.org/2000/svg"
   xmlns:sodipodi="http://sodipodi.sourceforge.net/DTD/sodipodi-0.dtd"
   xmlns:inkscape="http://www.inkscape.org/namespaces/inkscape"
   viewBox="0 0 42.666667 42.666667"
   fill="#ffffff"
   width="64"
   height="64"
   version="1.1"
   id="svg6"
   sodipodi:docname="electronics-white-36dp.svg"
   inkscape:version="1.0.1 (3bc2e813f5, 2020-09-07)">
  <metadata
     id="metadata12">
    <rdf:RDF>
      <cc:Work
         rdf:about="">
        <dc:format>image/svg+xml</dc:format>
        <dc:type
           rdf:resource="http://purl.org/dc/dcmitype/StillImage" />
        <dc:title></dc:title>
      </cc:Work>
    </rdf:RDF>
  </metadata>
  <defs
     id="defs10" />
  <sodipodi:namedview
     pagecolor="#ffffff"
     bordercolor="#666666"
     borderopacity="1"
     objecttolerance="10"
     gridtolerance="10"
     guidetolerance="10"
     inkscape:pageopacity="0"
     inkscape:pageshadow="2"
     inkscape:window-width="2400"
     inkscape:window-height="1271"
     id="namedview8"
     showgrid="false"
     inkscape:zoom="8.1513698"
     inkscape:cx="32.697869"
     inkscape:cy="22.299747"
     inkscape:window-x="2391"
     inkscape:window-y="-9"
     inkscape:window-maximized="1"
     inkscape:current-layer="svg6"
     inkscape:document-rotation="0" />
  <path
     d="M 0,0 H 24 V 24 H 0 Z"
     fill="none"
     id="path2" />
  <circle
     style="fill:#2d4057;fill-opacity:1;stroke-width:1.89618"
     id="path837"
     cx="21.333334"
     cy="21.333334"
     r="17.333334" />
  <path
     d="m 23.268222,18.431 h -3.869778 c -0.532094,0 -0.967444,0.43535 -0.967444,0.967445 v 3.869778 c 0,0.532094 0.43535,0.967444 0.967444,0.967444 h 3.869778 c 0.532094,0 0.967444,-0.43535 0.967444,-0.967444 v -3.869778 c 0,-0.532095 -0.43535,-0.967445 -0.967444,-0.967445 z m -0.967444,3.869778 h -1.934889 v -1.934889 h 1.934889 z m 7.739555,-2.902333 c 0,-0.532095 -0.43535,-0.967445 -0.967444,-0.967445 h -0.967445 v -1.934889 c 0,-1.064189 -0.8707,-1.934889 -1.934889,-1.934889 h -1.934889 v -0.967444 c 0,-0.532095 -0.43535,-0.967445 -0.967444,-0.967445 -0.532094,0 -0.967444,0.43535 -0.967444,0.967445 v 0.967444 h -1.934889 v -0.967444 c 0,-0.532095 -0.43535,-0.967445 -0.967445,-0.967445 -0.532094,0 -0.967444,0.43535 -0.967444,0.967445 v 0.967444 h -1.934889 c -1.064189,0 -1.934889,0.8707 -1.934889,1.934889 V 18.431 h -0.967445 c -0.532094,0 -0.967444,0.43535 -0.967444,0.967445 0,0.532094 0.43535,0.967444 0.967444,0.967444 h 0.967445 v 1.934889 h -0.967445 c -0.532094,0 -0.967444,0.435351 -0.967444,0.967445 0,0.532094 0.43535,0.967444 0.967444,0.967444 h 0.967445 v 1.934889 c 0,1.064189 0.8707,1.934889 1.934889,1.934889 H 18.431 v 0.967445 c 0,0.532094 0.43535,0.967444 0.967444,0.967444 0.532095,0 0.967445,-0.43535 0.967445,-0.967444 v -0.967445 h 1.934889 v 0.967445 c 0,0.532094 0.43535,0.967444 0.967444,0.967444 0.532094,0 0.967444,-0.43535 0.967444,-0.967444 v -0.967445 h 1.934889 c 1.064189,0 1.934889,-0.8707 1.934889,-1.934889 v -1.934889 h 0.967445 c 0.532094,0 0.967444,-0.43535 0.967444,-0.967444 0,-0.532094 -0.43535,-0.967445 -0.967444,-0.967445 h -0.967445 v -1.934889 h 0.967445 c 0.532094,0 0.967444,-0.43535 0.967444,-0.967444 z m -4.837222,6.772111 h -7.739556 c -0.532094,0 -0.967444,-0.43535 -0.967444,-0.967444 v -7.739556 c 0,-0.532095 0.43535,-0.967445 0.967444,-0.967445 h 7.739556 c 0.532094,0 0.967444,0.43535 0.967444,0.967445 v 7.739556 c 0,0.532094 -0.43535,0.967444 -0.967444,0.967444 z"
     id="path2-2"
     style="stroke-width:0.967444" />
</svg>
