<?xml version="1.0" encoding="UTF-8" standalone="no"?>
<svg
   xmlns:dc="http://purl.org/dc/elements/1.1/"
   xmlns:cc="http://creativecommons.org/ns#"
   xmlns:rdf="http://www.w3.org/1999/02/22-rdf-syntax-ns#"
   xmlns:svg="http://www.w3.org/2000/svg"
   xmlns="http://www.w3.org/2000/svg"
   xmlns:sodipodi="http://sodipodi.sourceforge.net/DTD/sodipodi-0.dtd"
   xmlns:inkscape="http://www.inkscape.org/namespaces/inkscape"
   viewBox="0 0 42.666667 42.666667"
   fill="#ffffff"
   width="64"
   height="64"
   version="1.1"
   id="svg6"
   sodipodi:docname="electricity-checked-36dp.svg"
   inkscape:version="1.0.1 (3bc2e813f5, 2020-09-07)">
  <metadata
     id="metadata12">
    <rdf:RDF>
      <cc:Work
         rdf:about="">
        <dc:format>image/svg+xml</dc:format>
        <dc:type
           rdf:resource="http://purl.org/dc/dcmitype/StillImage" />
        <dc:title></dc:title>
      </cc:Work>
    </rdf:RDF>
  </metadata>
  <defs
     id="defs10" />
  <sodipodi:namedview
     pagecolor="#ffffff"
     bordercolor="#666666"
     borderopacity="1"
     objecttolerance="10"
     gridtolerance="10"
     guidetolerance="10"
     inkscape:pageopacity="0"
     inkscape:pageshadow="2"
     inkscape:window-width="1676"
     inkscape:window-height="947"
     id="namedview8"
     showgrid="false"
     inkscape:zoom="8.1513698"
     inkscape:cx="32.697869"
     inkscape:cy="22.299747"
     inkscape:window-x="4945"
     inkscape:window-y="2"
     inkscape:window-maximized="0"
     inkscape:current-layer="svg6"
     inkscape:document-rotation="0" />
  <path
     d="M 0,0 H 24 V 24 H 0 Z"
     fill="none"
     id="path2" />
  <circle
     style="fill:#498df4;fill-opacity:1;stroke-width:1.89618"
     id="path837"
     cx="21.333334"
     cy="21.333334"
     r="17.333334" />
  <path
     d="m 9.755035,9.5096774 h 24 V 33.509677 h -24 z"
     fill="none"
     id="path2-1"
     style="stroke-width:1" />
  <g
     id="g18"
     transform="matrix(0.96744445,0,0,0.96744445,9.7240001,9.7240001)">
    <g
       id="g16">
      <path
         d="m 21,14 c 0,-0.55 -0.45,-1 -1,-1 h -2 v 2 h 2 c 0.55,0 1,-0.45 1,-1 z"
         id="path8" />
      <path
         d="m 20,17 h -2 v 2 h 2 c 0.55,0 1,-0.45 1,-1 0,-0.55 -0.45,-1 -1,-1 z"
         id="path10" />
      <path
         d="m 16,12 h -2 c -1.1,0 -2,0.9 -2,2 h -1 c -0.55,0 -1,0.45 -1,1 v 2 c 0,0.55 0.45,1 1,1 h 1 c 0,1.1 0.9,2 2,2 h 2 c 0.55,0 1,-0.45 1,-1 v -6 c 0,-0.55 -0.45,-1 -1,-1 z"
         id="path12" />
      <path
         d="M 5,13 C 5,11.9 5.9,11 7,11 H 8.5 C 10.43,11 12,9.43 12,7.5 12,5.57 10.43,4 8.5,4 H 5 C 4.45,4 4,4.45 4,5 4,5.55 4.45,6 5,6 H 8.5 C 9.33,6 10,6.67 10,7.5 10,8.33 9.33,9 8.5,9 H 7 c -2.21,0 -4,1.79 -4,4 0,2.21 1.79,4 4,4 H 9 V 15 H 7 C 5.9,15 5,14.1 5,13 Z"
         id="path14" />
    </g>
  </g>
</svg>
