<?xml version="1.0" encoding="UTF-8" standalone="no"?>
<svg
   xmlns:dc="http://purl.org/dc/elements/1.1/"
   xmlns:cc="http://creativecommons.org/ns#"
   xmlns:rdf="http://www.w3.org/1999/02/22-rdf-syntax-ns#"
   xmlns:svg="http://www.w3.org/2000/svg"
   xmlns="http://www.w3.org/2000/svg"
   xmlns:sodipodi="http://sodipodi.sourceforge.net/DTD/sodipodi-0.dtd"
   xmlns:inkscape="http://www.inkscape.org/namespaces/inkscape"
   viewBox="0 0 42.666667 42.666667"
   fill="#ffffff"
   width="64"
   height="64"
   version="1.1"
   id="svg6"
   sodipodi:docname="local_gas_station-checked-36dp.svg"
   inkscape:version="1.0.1 (3bc2e813f5, 2020-09-07)">
  <metadata
     id="metadata12">
    <rdf:RDF>
      <cc:Work
         rdf:about="">
        <dc:format>image/svg+xml</dc:format>
        <dc:type
           rdf:resource="http://purl.org/dc/dcmitype/StillImage" />
        <dc:title></dc:title>
      </cc:Work>
    </rdf:RDF>
  </metadata>
  <defs
     id="defs10" />
  <sodipodi:namedview
     pagecolor="#ffffff"
     bordercolor="#666666"
     borderopacity="1"
     objecttolerance="10"
     gridtolerance="10"
     guidetolerance="10"
     inkscape:pageopacity="0"
     inkscape:pageshadow="2"
     inkscape:window-width="2400"
     inkscape:window-height="1271"
     id="namedview8"
     showgrid="false"
     inkscape:zoom="8.1513698"
     inkscape:cx="32.697869"
     inkscape:cy="22.299747"
     inkscape:window-x="2391"
     inkscape:window-y="-9"
     inkscape:window-maximized="1"
     inkscape:current-layer="svg6"
     inkscape:document-rotation="0" />
  <path
     d="M 0,0 H 24 V 24 H 0 Z"
     fill="none"
     id="path2" />
  <circle
     style="fill:#498df4;fill-opacity:1;stroke-width:1.89618"
     id="path837"
     cx="21.333334"
     cy="21.333334"
     r="17.333334" />
  <path
     d="m 29.269896,16.29753 0.01055,-0.01055 -3.366706,-3.366707 c -0.306064,-0.306064 -0.812654,-0.306064 -1.118718,0 -0.306064,0.306064 -0.306064,0.812653 0,1.118718 l 1.667523,1.667522 c -1.108164,0.422158 -1.857494,1.551429 -1.667523,2.860118 0.168863,1.160933 1.160934,2.100234 2.321867,2.226881 0.496035,0.05277 0.928747,-0.03166 1.34035,-0.211079 v 7.60939 c 0,0.580467 -0.474927,1.055394 -1.055394,1.055394 -0.580466,0 -1.055394,-0.474927 -1.055394,-1.055394 v -4.749272 c 0,-1.160934 -0.949854,-2.110788 -2.110788,-2.110788 h -1.055391 v -7.387758 c 0,-1.160933 -0.949854,-2.110788 -2.110787,-2.110788 h -6.332364 c -1.160933,0 -2.110788,0.949855 -2.110788,2.110788 v 15.830909 c 0,0.580467 0.474927,1.055394 1.055394,1.055394 h 8.443152 c 0.580466,0 1.055393,-0.474927 1.055393,-1.055394 v -6.86006 h 1.583091 v 5.129214 c 0,1.382566 0.992071,2.638485 2.364083,2.775686 1.583091,0.158309 2.912887,-1.076502 2.912887,-2.627931 V 18.165577 c 0,-0.728222 -0.29551,-1.39312 -0.770437,-1.868047 z m -8.200411,2.923441 h -6.332364 v -4.221576 c 0,-0.580466 0.474927,-1.055394 1.055394,-1.055394 h 4.221576 c 0.580466,0 1.055394,0.474928 1.055394,1.055394 z m 6.332363,0 c -0.580466,0 -1.055394,-0.474927 -1.055394,-1.055394 0,-0.580467 0.474928,-1.055394 1.055394,-1.055394 0.580467,0 1.055394,0.474927 1.055394,1.055394 0,0.580467 -0.474927,1.055394 -1.055394,1.055394 z"
     id="path4-2"
     style="stroke-width:1.05539" />
</svg>
