<?xml version="1.0" encoding="UTF-8" standalone="no"?>
<svg
   xmlns:dc="http://purl.org/dc/elements/1.1/"
   xmlns:cc="http://creativecommons.org/ns#"
   xmlns:rdf="http://www.w3.org/1999/02/22-rdf-syntax-ns#"
   xmlns:svg="http://www.w3.org/2000/svg"
   xmlns="http://www.w3.org/2000/svg"
   xmlns:sodipodi="http://sodipodi.sourceforge.net/DTD/sodipodi-0.dtd"
   xmlns:inkscape="http://www.inkscape.org/namespaces/inkscape"
   viewBox="0 0 42.666667 42.666667"
   fill="#ffffff"
   width="64"
   height="64"
   version="1.1"
   id="svg6"
   sodipodi:docname="grocery-white-36dp.svg"
   inkscape:version="1.0.1 (3bc2e813f5, 2020-09-07)">
  <metadata
     id="metadata12">
    <rdf:RDF>
      <cc:Work
         rdf:about="">
        <dc:format>image/svg+xml</dc:format>
        <dc:type
           rdf:resource="http://purl.org/dc/dcmitype/StillImage" />
        <dc:title></dc:title>
      </cc:Work>
    </rdf:RDF>
  </metadata>
  <defs
     id="defs10" />
  <sodipodi:namedview
     pagecolor="#ffffff"
     bordercolor="#666666"
     borderopacity="1"
     objecttolerance="10"
     gridtolerance="10"
     guidetolerance="10"
     inkscape:pageopacity="0"
     inkscape:pageshadow="2"
     inkscape:window-width="1920"
     inkscape:window-height="1001"
     id="namedview8"
     showgrid="false"
     inkscape:zoom="8.1513698"
     inkscape:cx="32.697869"
     inkscape:cy="22.299747"
     inkscape:window-x="4791"
     inkscape:window-y="-9"
     inkscape:window-maximized="1"
     inkscape:current-layer="svg6"
     inkscape:document-rotation="0" />
  <path
     d="M 0,0 H 24 V 24 H 0 Z"
     fill="none"
     id="path2" />
  <circle
     style="fill:#2d4057;fill-opacity:1;stroke-width:1.89618"
     id="path837"
     cx="21.333334"
     cy="21.333334"
     r="17.333334" />
  <path
     d="m 17.507694,22.546512 2.577398,-2.577398 -5.637488,-5.62838 c -0.437156,-0.437156 -1.193071,-0.318759 -1.466293,0.2459 -0.646626,1.357005 -0.409834,3.023661 0.710378,4.15298 z m 6.174825,-1.648441 c 1.393434,0.646626 3.351527,0.191256 4.799606,-1.256823 1.739515,-1.739516 2.07649,-4.234947 0.7377,-5.573736 -1.329682,-1.329682 -3.825113,-1.001815 -5.573736,0.7377 -1.448078,1.448079 -1.903449,3.406172 -1.256822,4.799606 l -8.242208,8.242208 c -0.355189,0.355189 -0.355189,0.928956 0,1.284145 0.355189,0.355189 0.928956,0.355189 1.284145,0 l 5.628381,-5.610166 5.62838,5.628381 c 0.355189,0.355189 0.928956,0.355189 1.284145,0 0.355189,-0.355189 0.355189,-0.928956 0,-1.284145 L 22.34373,22.23686 Z"
     id="path4"
     style="stroke-width:0.910741" />
</svg>
