<?xml version="1.0" encoding="UTF-8" standalone="no"?>
<svg
   xmlns:dc="http://purl.org/dc/elements/1.1/"
   xmlns:cc="http://creativecommons.org/ns#"
   xmlns:rdf="http://www.w3.org/1999/02/22-rdf-syntax-ns#"
   xmlns:svg="http://www.w3.org/2000/svg"
   xmlns="http://www.w3.org/2000/svg"
   xmlns:sodipodi="http://sodipodi.sourceforge.net/DTD/sodipodi-0.dtd"
   xmlns:inkscape="http://www.inkscape.org/namespaces/inkscape"
   viewBox="0 0 24 24"
   fill="#0190EA"
   width="24px"
   height="24px"
   version="1.1"
   id="svg6"
   sodipodi:docname="more_horiz-white-24dp.svg"
   inkscape:version="1.0.1 (3bc2e813f5, 2020-09-07)">
  <metadata
     id="metadata12">
    <rdf:RDF>
      <cc:Work
         rdf:about="">
        <dc:format>image/svg+xml</dc:format>
        <dc:type
           rdf:resource="http://purl.org/dc/dcmitype/StillImage" />
      </cc:Work>
    </rdf:RDF>
  </metadata>
  <defs
     id="defs10" />
  <sodipodi:namedview
     pagecolor="#ffffff"
     bordercolor="#666666"
     borderopacity="1"
     objecttolerance="10"
     gridtolerance="10"
     guidetolerance="10"
     inkscape:pageopacity="0"
     inkscape:pageshadow="2"
     inkscape:window-width="2400"
     inkscape:window-height="1271"
     id="namedview8"
     showgrid="false"
     inkscape:zoom="34.583333"
     inkscape:cx="12"
     inkscape:cy="12"
     inkscape:window-x="-9"
     inkscape:window-y="-9"
     inkscape:window-maximized="1"
     inkscape:current-layer="svg6" />
  <path
     d="M0 0h24v24H0V0z"
     fill="none"
     id="path2" />
  <path
     d="m 3.213253,9.0710845 c -1.6109036,0 -2.92891565,1.3180115 -2.92891565,2.9289165 0,1.610903 1.31801205,2.928915 2.92891565,2.928915 1.6109037,0 2.9289157,-1.318012 2.9289157,-2.928915 0,-1.610905 -1.318012,-2.9289165 -2.9289157,-2.9289165 z m 17.573494,0 c -1.610903,0 -2.928915,1.3180115 -2.928915,2.9289165 0,1.610903 1.318012,2.928915 2.928915,2.928915 1.610904,0 2.928916,-1.318012 2.928916,-2.928915 0,-1.610905 -1.318012,-2.9289165 -2.928916,-2.9289165 z m -8.786747,0 c -1.610904,0 -2.9289156,1.3180115 -2.9289156,2.9289165 0,1.610903 1.3180116,2.928915 2.9289156,2.928915 1.610904,0 2.928916,-1.318012 2.928916,-2.928915 0,-1.610905 -1.318012,-2.9289165 -2.928916,-2.9289165 z"
     id="path4"
     style="stroke-width:1.46446" />
</svg>
