<?xml version="1.0" encoding="UTF-8" standalone="no"?>
<svg
   xmlns:dc="http://purl.org/dc/elements/1.1/"
   xmlns:cc="http://creativecommons.org/ns#"
   xmlns:rdf="http://www.w3.org/1999/02/22-rdf-syntax-ns#"
   xmlns:svg="http://www.w3.org/2000/svg"
   xmlns="http://www.w3.org/2000/svg"
   xmlns:sodipodi="http://sodipodi.sourceforge.net/DTD/sodipodi-0.dtd"
   xmlns:inkscape="http://www.inkscape.org/namespaces/inkscape"
   viewBox="0 0 42.666667 42.666667"
   fill="#ffffff"
   width="64"
   height="64"
   version="1.1"
   id="svg6"
   sodipodi:docname="phone-white-36dp.svg"
   inkscape:version="1.0.1 (3bc2e813f5, 2020-09-07)">
  <metadata
     id="metadata12">
    <rdf:RDF>
      <cc:Work
         rdf:about="">
        <dc:format>image/svg+xml</dc:format>
        <dc:type
           rdf:resource="http://purl.org/dc/dcmitype/StillImage" />
        <dc:title></dc:title>
      </cc:Work>
    </rdf:RDF>
  </metadata>
  <defs
     id="defs10" />
  <sodipodi:namedview
     pagecolor="#ffffff"
     bordercolor="#666666"
     borderopacity="1"
     objecttolerance="10"
     gridtolerance="10"
     guidetolerance="10"
     inkscape:pageopacity="0"
     inkscape:pageshadow="2"
     inkscape:window-width="1676"
     inkscape:window-height="947"
     id="namedview8"
     showgrid="false"
     inkscape:zoom="8.1513698"
     inkscape:cx="32.697869"
     inkscape:cy="22.299747"
     inkscape:window-x="4945"
     inkscape:window-y="2"
     inkscape:window-maximized="0"
     inkscape:current-layer="svg6"
     inkscape:document-rotation="0" />
  <path
     d="M 0,0 H 24 V 24 H 0 Z"
     fill="none"
     id="path2" />
  <circle
     style="fill:#2d4057;fill-opacity:1;stroke-width:1.89618"
     id="path837"
     cx="21.333334"
     cy="21.333334"
     r="17.333334" />
  <path
     d="m 9.755035,9.5096774 h 24 V 33.509677 h -24 z"
     fill="none"
     id="path2-1"
     style="stroke-width:1" />
  <path
     d="m 30.02945,12.626333 c 0,-1.197212 -0.968654,-2.17675 -2.165865,-2.17675 h -7.80365 c -0.576839,0 -1.131911,0.228559 -1.545493,0.642142 l -5.245967,5.245967 c -0.413582,0.413582 -0.642142,0.968654 -0.642142,1.545493 v 12.157149 c 0,1.197212 0.979538,2.17675 2.176751,2.17675 h 13.071383 c 1.197214,0 2.165866,-0.979538 2.165866,-2.17675 z M 16.979834,28.951959 c -0.598607,0 -1.088374,-0.489769 -1.088374,-1.088376 0,-0.598606 0.489768,-1.088375 1.088374,-1.088375 0.598607,0 1.088376,0.489769 1.088376,1.088375 0,0.598607 -0.489769,1.088376 -1.088376,1.088376 z m 8.707,0 c -0.598607,0 -1.088373,-0.489769 -1.088373,-1.088376 0,-0.598606 0.489767,-1.088375 1.088374,-1.088375 0.598606,0 1.088375,0.489769 1.088375,1.088375 0,0.598607 -0.489769,1.088376 -1.088376,1.088376 z m -8.707,-4.353501 c -0.598607,0 -1.088374,-0.489769 -1.088374,-1.088375 v -2.17675 c 0,-0.598606 0.489768,-1.088375 1.088374,-1.088375 0.598607,0 1.088376,0.489769 1.088376,1.088375 v 2.17675 c 0,0.598606 -0.489769,1.088375 -1.088376,1.088375 z m 4.353501,4.353501 c -0.598608,0 -1.088376,-0.489769 -1.088376,-1.088376 v -2.176749 c 0,-0.598607 0.489768,-1.088376 1.088376,-1.088376 0.598606,0 1.088374,0.489769 1.088374,1.088376 v 2.176749 c 0,0.598607 -0.489768,1.088376 -1.088374,1.088376 z m 0,-6.53025 c -0.598608,0 -1.088376,-0.489769 -1.088376,-1.088376 0,-0.598606 0.489768,-1.088375 1.088376,-1.088375 0.598606,0 1.088374,0.489769 1.088374,1.088375 0,0.598607 -0.489768,1.088376 -1.088374,1.088376 z m 4.353499,2.176749 c -0.598607,0 -1.088374,-0.489769 -1.088374,-1.088375 v -2.17675 c 0,-0.598606 0.489767,-1.088375 1.088374,-1.088375 0.598606,0 1.088375,0.489769 1.088375,1.088375 v 2.17675 c 0,0.598606 -0.489769,1.088375 -1.088375,1.088375 z"
     id="path2-16"
     style="stroke-width:1.08837" />
</svg>
