<?xml version="1.0" encoding="UTF-8" standalone="no"?>
<svg
   xmlns:dc="http://purl.org/dc/elements/1.1/"
   xmlns:cc="http://creativecommons.org/ns#"
   xmlns:rdf="http://www.w3.org/1999/02/22-rdf-syntax-ns#"
   xmlns:svg="http://www.w3.org/2000/svg"
   xmlns="http://www.w3.org/2000/svg"
   xmlns:sodipodi="http://sodipodi.sourceforge.net/DTD/sodipodi-0.dtd"
   xmlns:inkscape="http://www.inkscape.org/namespaces/inkscape"
   viewBox="0 0 42.666667 42.666667"
   fill="#ffffff"
   width="64"
   height="64"
   version="1.1"
   id="svg6"
   sodipodi:docname="shopping_cart-white-36dp.svg"
   inkscape:version="1.0.1 (3bc2e813f5, 2020-09-07)">
  <metadata
     id="metadata12">
    <rdf:RDF>
      <cc:Work
         rdf:about="">
        <dc:format>image/svg+xml</dc:format>
        <dc:type
           rdf:resource="http://purl.org/dc/dcmitype/StillImage" />
        <dc:title></dc:title>
      </cc:Work>
    </rdf:RDF>
  </metadata>
  <defs
     id="defs10" />
  <sodipodi:namedview
     pagecolor="#ffffff"
     bordercolor="#666666"
     borderopacity="1"
     objecttolerance="10"
     gridtolerance="10"
     guidetolerance="10"
     inkscape:pageopacity="0"
     inkscape:pageshadow="2"
     inkscape:window-width="2400"
     inkscape:window-height="1271"
     id="namedview8"
     showgrid="false"
     inkscape:zoom="8.1513698"
     inkscape:cx="32.697869"
     inkscape:cy="22.299747"
     inkscape:window-x="-9"
     inkscape:window-y="-9"
     inkscape:window-maximized="1"
     inkscape:current-layer="svg6"
     inkscape:document-rotation="0" />
  <path
     d="M 0,0 H 24 V 24 H 0 Z"
     fill="none"
     id="path2" />
  <circle
     style="fill:#383050;fill-opacity:1;stroke-width:1.89618"
     id="path837"
     cx="21.333334"
     cy="21.333334"
     r="17.333334" />
  <path
     d="m 17.848527,26.555692 c -0.957433,0 -1.732082,0.783354 -1.732082,1.740786 0,0.957433 0.774649,1.740788 1.732082,1.740788 0.957433,0 1.740788,-0.783355 1.740788,-1.740788 0,-0.957432 -0.783355,-1.740786 -1.740788,-1.740786 z m -5.22236,-13.055899 c 0,0.478716 0.391676,0.870393 0.870393,0.870393 h 0.870393 l 3.133416,6.606284 -1.17503,2.123759 c -0.635388,1.16633 0.20019,2.585069 1.523188,2.585069 h 9.574329 c 0.478715,0 0.870391,-0.391678 0.870391,-0.870392 0,-0.478718 -0.391676,-0.870392 -0.870391,-0.870392 h -9.574329 l 0.957433,-1.740787 h 6.484431 c 0.652796,0 1.227256,-0.356865 1.523188,-0.896506 l 3.116009,-5.648851 c 0.322045,-0.574461 -0.09575,-1.288183 -0.757243,-1.288183 H 16.290522 L 15.70736,13.125524 C 15.568097,12.820886 15.254754,12.6294 14.924005,12.6294 H 13.49656 c -0.478717,0 -0.870393,0.391677 -0.870393,0.870393 z m 13.926292,13.055899 c -0.957432,0 -1.732081,0.783354 -1.732081,1.740786 0,0.957433 0.774649,1.740788 1.732081,1.740788 0.957436,0 1.740788,-0.783355 1.740788,-1.740788 0,-0.957432 -0.783352,-1.740786 -1.740788,-1.740786 z"
     id="path4"
     style="stroke-width:0.870391" />
</svg>
