<?xml version="1.0" encoding="UTF-8" standalone="no"?>
<svg
   xmlns:dc="http://purl.org/dc/elements/1.1/"
   xmlns:cc="http://creativecommons.org/ns#"
   xmlns:rdf="http://www.w3.org/1999/02/22-rdf-syntax-ns#"
   xmlns:svg="http://www.w3.org/2000/svg"
   xmlns="http://www.w3.org/2000/svg"
   xmlns:sodipodi="http://sodipodi.sourceforge.net/DTD/sodipodi-0.dtd"
   xmlns:inkscape="http://www.inkscape.org/namespaces/inkscape"
   viewBox="0 0 42.666667 42.666667"
   fill="#ffffff"
   width="64"
   height="64"
   version="1.1"
   id="svg6"
   sodipodi:docname="sports-checked-36dp.svg"
   inkscape:version="1.0.1 (3bc2e813f5, 2020-09-07)">
  <metadata
     id="metadata12">
    <rdf:RDF>
      <cc:Work
         rdf:about="">
        <dc:format>image/svg+xml</dc:format>
        <dc:type
           rdf:resource="http://purl.org/dc/dcmitype/StillImage" />
        <dc:title></dc:title>
      </cc:Work>
    </rdf:RDF>
  </metadata>
  <defs
     id="defs10" />
  <sodipodi:namedview
     pagecolor="#ffffff"
     bordercolor="#666666"
     borderopacity="1"
     objecttolerance="10"
     gridtolerance="10"
     guidetolerance="10"
     inkscape:pageopacity="0"
     inkscape:pageshadow="2"
     inkscape:window-width="1676"
     inkscape:window-height="947"
     id="namedview8"
     showgrid="false"
     inkscape:zoom="8.1513698"
     inkscape:cx="32.697869"
     inkscape:cy="22.299747"
     inkscape:window-x="3193"
     inkscape:window-y="94"
     inkscape:window-maximized="0"
     inkscape:current-layer="svg6"
     inkscape:document-rotation="0" />
  <path
     d="M 0,0 H 24 V 24 H 0 Z"
     fill="none"
     id="path2" />
  <circle
     style="fill:#498df4;fill-opacity:1;stroke-width:1.89618"
     id="path837"
     cx="21.333334"
     cy="21.333334"
     r="17.333334" />
  <g
     id="g18"
     transform="matrix(0.87070001,0,0,0.87070001,10.884933,10.88163)">
    <g
       id="g16">
      <g
         id="g10">
        <path
           d="M 21,6 H 11.23 C 9.57,6 8.01,6.66 6.87,7.73 6.54,6.73 5.61,6 4.5,6 3.12,6 2,7.12 2,8.5 2,9.88 3.12,11 4.5,11 c 0.21,0 0.41,-0.03 0.61,-0.08 -0.05,0.25 -0.09,0.51 -0.1,0.78 -0.18,3.68 2.95,6.68 6.68,6.27 2.55,-0.28 4.68,-2.26 5.19,-4.77 0.15,-0.71 0.15,-1.4 0.06,-2.06 -0.09,-0.6 0.38,-1.13 0.99,-1.13 h 2.76 C 21.56,10 22,9.55 22,9 V 7 C 22,6.45 21.55,6 21,6 Z M 4.5,9 C 4.22,9 4,8.78 4,8.5 4,8.22 4.22,8 4.5,8 4.78,8 5,8.22 5,8.5 5,8.78 4.78,9 4.5,9 Z M 11,15 C 9.34,15 8,13.66 8,12 8,10.34 9.34,9 11,9 c 1.66,0 3,1.34 3,3 0,1.66 -1.34,3 -3,3 z"
           id="path8" />
      </g>
      <g
         id="g14">
        <circle
           cx="11"
           cy="12"
           r="2"
           id="circle12" />
      </g>
    </g>
  </g>
</svg>
