<?xml version="1.0" encoding="UTF-8" standalone="no"?>
<svg
   xmlns:dc="http://purl.org/dc/elements/1.1/"
   xmlns:cc="http://creativecommons.org/ns#"
   xmlns:rdf="http://www.w3.org/1999/02/22-rdf-syntax-ns#"
   xmlns:svg="http://www.w3.org/2000/svg"
   xmlns="http://www.w3.org/2000/svg"
   xmlns:sodipodi="http://sodipodi.sourceforge.net/DTD/sodipodi-0.dtd"
   xmlns:inkscape="http://www.inkscape.org/namespaces/inkscape"
   viewBox="0 0 42.666667 42.666667"
   fill="#ffffff"
   width="64"
   height="64"
   version="1.1"
   id="svg6"
   sodipodi:docname="flight-white-36dp.svg"
   inkscape:version="1.0.1 (3bc2e813f5, 2020-09-07)">
  <metadata
     id="metadata12">
    <rdf:RDF>
      <cc:Work
         rdf:about="">
        <dc:format>image/svg+xml</dc:format>
        <dc:type
           rdf:resource="http://purl.org/dc/dcmitype/StillImage" />
        <dc:title></dc:title>
      </cc:Work>
    </rdf:RDF>
  </metadata>
  <defs
     id="defs10" />
  <sodipodi:namedview
     pagecolor="#ffffff"
     bordercolor="#666666"
     borderopacity="1"
     objecttolerance="10"
     gridtolerance="10"
     guidetolerance="10"
     inkscape:pageopacity="0"
     inkscape:pageshadow="2"
     inkscape:window-width="1920"
     inkscape:window-height="1001"
     id="namedview8"
     showgrid="false"
     inkscape:zoom="8.1513698"
     inkscape:cx="32.697869"
     inkscape:cy="22.299747"
     inkscape:window-x="4791"
     inkscape:window-y="-9"
     inkscape:window-maximized="1"
     inkscape:current-layer="svg6"
     inkscape:document-rotation="0" />
  <path
     d="M 0,0 H 24 V 24 H 0 Z"
     fill="none"
     id="path2" />
  <circle
     style="fill:#2d4057;fill-opacity:1;stroke-width:1.89618"
     id="path837"
     cx="21.333334"
     cy="21.333334"
     r="17.333334" />
  <path
     d="m 30.040333,23.77172 c 0,-0.329949 -0.17414,-0.632403 -0.449098,-0.815708 l -6.883112,-4.298508 v -5.040895 c 0,-0.760717 -0.614073,-1.37479 -1.37479,-1.37479 -0.760717,0 -1.374789,0.614073 -1.374789,1.37479 v 5.040895 l -6.883113,4.298508 c -0.274958,0.17414 -0.449098,0.485759 -0.449098,0.815708 0,0.641569 0.623238,1.108997 1.246476,0.916526 l 6.085735,-1.906374 v 5.040894 l -1.649748,1.237311 c -0.119148,0.08249 -0.183305,0.219966 -0.183305,0.366611 v 0.54075 c 0,0.302454 0.293288,0.52242 0.586577,0.439933 l 2.621265,-0.751552 2.621265,0.751552 c 0.293289,0.08249 0.586577,-0.137479 0.586577,-0.439933 v -0.54075 c 0,-0.146645 -0.06416,-0.284124 -0.183305,-0.366611 l -1.649747,-1.237311 v -5.040894 l 6.085734,1.906374 c 0.623238,0.192471 1.246476,-0.274957 1.246476,-0.916526 z"
     id="path4-3"
     style="stroke-width:0.916526" />
</svg>
