<?xml version="1.0" encoding="UTF-8" standalone="no"?>
<svg
   xmlns:dc="http://purl.org/dc/elements/1.1/"
   xmlns:cc="http://creativecommons.org/ns#"
   xmlns:rdf="http://www.w3.org/1999/02/22-rdf-syntax-ns#"
   xmlns:svg="http://www.w3.org/2000/svg"
   xmlns="http://www.w3.org/2000/svg"
   xmlns:sodipodi="http://sodipodi.sourceforge.net/DTD/sodipodi-0.dtd"
   xmlns:inkscape="http://www.inkscape.org/namespaces/inkscape"
   height="48"
   width="48"
   version="1.1"
   id="svg4"
   sodipodi:docname="account_balance_wallet_FILL0_wght400_GRAD0_opsz48.svg"
   inkscape:version="1.0.1 (3bc2e813f5, 2020-09-07)">
  <metadata
     id="metadata10">
    <rdf:RDF>
      <cc:Work
         rdf:about="">
        <dc:format>image/svg+xml</dc:format>
        <dc:type
           rdf:resource="http://purl.org/dc/dcmitype/StillImage" />
      </cc:Work>
    </rdf:RDF>
  </metadata>
  <defs
     id="defs8" />
  <sodipodi:namedview
     pagecolor="#ffffff"
     bordercolor="#666666"
     borderopacity="1"
     objecttolerance="10"
     gridtolerance="10"
     guidetolerance="10"
     inkscape:pageopacity="0"
     inkscape:pageshadow="2"
     inkscape:window-width="1920"
     inkscape:window-height="1009"
     id="namedview6"
     showgrid="false"
     inkscape:zoom="17.541667"
     inkscape:cx="24"
     inkscape:cy="24"
     inkscape:window-x="-8"
     inkscape:window-y="-8"
     inkscape:window-maximized="1"
     inkscape:current-layer="svg4" />
  <path
     d="M32.6 27.2q1.25 0 2.225-.975.975-.975.975-2.275 0-1.25-.975-2.2-.975-.95-2.225-.95t-2.225.95q-.975.95-.975 2.2 0 1.3.975 2.275.975.975 2.225.975ZM9 36.35V39 9 36.35ZM9 42q-1.15 0-2.075-.9Q6 40.2 6 39V9q0-1.15.925-2.075Q7.85 6 9 6h30q1.2 0 2.1.925Q42 7.85 42 9v6.7h-3V9H9v30h30v-6.65h3V39q0 1.2-.9 2.1-.9.9-2.1.9Zm17.9-8.65q-1.7 0-2.7-1-1-1-1-2.65V18.35q0-1.7 1-2.675 1-.975 2.7-.975h13.5q1.7 0 2.7.975 1 .975 1 2.675V29.7q0 1.65-1 2.65t-2.7 1Zm14.2-3V17.7H26.2v12.65Z"
     id="path2"
     style="fill:#ffffff;fill-opacity:0.89803922" />
</svg>
