<?xml version="1.0" encoding="UTF-8" standalone="no"?>
<svg
   xmlns:dc="http://purl.org/dc/elements/1.1/"
   xmlns:cc="http://creativecommons.org/ns#"
   xmlns:rdf="http://www.w3.org/1999/02/22-rdf-syntax-ns#"
   xmlns:svg="http://www.w3.org/2000/svg"
   xmlns="http://www.w3.org/2000/svg"
   xmlns:sodipodi="http://sodipodi.sourceforge.net/DTD/sodipodi-0.dtd"
   xmlns:inkscape="http://www.inkscape.org/namespaces/inkscape"
   height="48"
   width="48"
   version="1.1"
   id="svg4"
   sodipodi:docname="palette_FILL0_wght500_GRAD0_opsz48.svg"
   inkscape:version="1.0.1 (3bc2e813f5, 2020-09-07)">
  <metadata
     id="metadata10">
    <rdf:RDF>
      <cc:Work
         rdf:about="">
        <dc:format>image/svg+xml</dc:format>
        <dc:type
           rdf:resource="http://purl.org/dc/dcmitype/StillImage" />
      </cc:Work>
    </rdf:RDF>
  </metadata>
  <defs
     id="defs8" />
  <sodipodi:namedview
     pagecolor="#ffffff"
     bordercolor="#666666"
     borderopacity="1"
     objecttolerance="10"
     gridtolerance="10"
     guidetolerance="10"
     inkscape:pageopacity="0"
     inkscape:pageshadow="2"
     inkscape:window-width="1920"
     inkscape:window-height="1009"
     id="namedview6"
     showgrid="false"
     inkscape:zoom="17.541667"
     inkscape:cx="24"
     inkscape:cy="24"
     inkscape:window-x="-8"
     inkscape:window-y="-8"
     inkscape:window-maximized="1"
     inkscape:current-layer="svg4" />
  <path
     d="M24 44.3q-4.15 0-7.85-1.6-3.7-1.6-6.475-4.375Q6.9 35.55 5.3 31.85 3.7 28.15 3.7 24q0-4.3 1.625-8T9.75 9.55q2.8-2.75 6.575-4.3Q20.1 3.7 24.45 3.7q4 0 7.6 1.35 3.6 1.35 6.325 3.725T42.7 14.45q1.6 3.3 1.6 7.2 0 5.45-3.15 8.7-3.15 3.25-8.5 3.25H29.1q-.85 0-1.5.7t-.65 1.5q0 1.35.675 2.175.675.825.675 2.075 0 1.95-1.15 3.1Q26 44.3 24 44.3ZM24 24Zm-11.55 1.3q1 0 1.75-.75t.75-1.75q0-1-.75-1.75t-1.75-.75q-1 0-1.75.75t-.75 1.75q0 1 .75 1.75t1.75.75Zm6.25-8.4q1 0 1.75-.75t.75-1.75q0-1.05-.75-1.775-.75-.725-1.75-.725t-1.75.725q-.75.725-.75 1.775 0 1 .75 1.75t1.75.75Zm10.6 0q1 0 1.75-.75t.75-1.75q0-1.05-.75-1.775-.75-.725-1.75-.725t-1.75.725q-.75.725-.75 1.775 0 1 .75 1.75t1.75.75Zm6.45 8.4q1 0 1.75-.75t.75-1.75q0-1-.75-1.75t-1.75-.75q-1 0-1.75.75t-.75 1.75q0 1 .75 1.75t1.75.75Zm-11.8 15.6q.5 0 .725-.225.225-.225.225-.675 0-.7-.725-1.275T23.45 36.1q0-2.3 1.525-4.1 1.525-1.8 3.875-1.8h3.8q3.8 0 6.025-2.225Q40.9 25.75 40.9 21.7q0-6.6-4.975-10.6t-11.475-4q-7.25 0-12.3 4.9Q7.1 16.9 7.1 24q0 7 4.925 11.95Q16.95 40.9 23.95 40.9Z"
     id="path2"
     style="fill:#0190ea;fill-opacity:1" />
</svg>
