<?xml version="1.0" encoding="UTF-8" standalone="no"?>
<svg
   xmlns:dc="http://purl.org/dc/elements/1.1/"
   xmlns:cc="http://creativecommons.org/ns#"
   xmlns:rdf="http://www.w3.org/1999/02/22-rdf-syntax-ns#"
   xmlns:svg="http://www.w3.org/2000/svg"
   xmlns="http://www.w3.org/2000/svg"
   xmlns:sodipodi="http://sodipodi.sourceforge.net/DTD/sodipodi-0.dtd"
   xmlns:inkscape="http://www.inkscape.org/namespaces/inkscape"
   height="24"
   viewBox="0 -960 960 960"
   width="24"
   version="1.1"
   id="svg4"
   sodipodi:docname="upload_file_FILL0_wght200_GRAD0_opsz24.svg"
   inkscape:version="1.0.1 (3bc2e813f5, 2020-09-07)">
  <metadata
     id="metadata10">
    <rdf:RDF>
      <cc:Work
         rdf:about="">
        <dc:format>image/svg+xml</dc:format>
        <dc:type
           rdf:resource="http://purl.org/dc/dcmitype/StillImage" />
      </cc:Work>
    </rdf:RDF>
  </metadata>
  <defs
     id="defs8" />
  <sodipodi:namedview
     pagecolor="#ffffff"
     bordercolor="#666666"
     borderopacity="1"
     objecttolerance="10"
     gridtolerance="10"
     guidetolerance="10"
     inkscape:pageopacity="0"
     inkscape:pageshadow="2"
     inkscape:window-width="1920"
     inkscape:window-height="1009"
     id="namedview6"
     showgrid="false"
     inkscape:zoom="35.083333"
     inkscape:cx="12"
     inkscape:cy="12"
     inkscape:window-x="-8"
     inkscape:window-y="-7"
     inkscape:window-maximized="1"
     inkscape:current-layer="svg4" />
  <path
     d="M450.001-224.617h59.998v-177.386L584-328.002l42.153-42.768L480-516.923 333.847-370.77l42.768 42.153 73.386-73.386v177.386ZM252.309-100.001q-30.308 0-51.308-21t-21-51.308v-615.382q0-30.308 21-51.308t51.308-21h317.692l209.998 209.998v477.692q0 30.308-21 51.308t-51.308 21H252.309Zm287.692-520V-800H252.309q-4.616 0-8.463 3.846-3.846 3.847-3.846 8.463v615.382q0 4.616 3.846 8.463 3.847 3.846 8.463 3.846h455.382q4.616 0 8.463-3.846 3.846-3.847 3.846-8.463v-447.692H540.001ZM240-800v179.999V-800v640V-800Z"
     id="path2"
     style="fill:#ffffff;fill-opacity:0.89803922" />
</svg>
