<?xml version="1.0" encoding="UTF-8" standalone="no"?>
<svg
   xmlns:dc="http://purl.org/dc/elements/1.1/"
   xmlns:cc="http://creativecommons.org/ns#"
   xmlns:rdf="http://www.w3.org/1999/02/22-rdf-syntax-ns#"
   xmlns:svg="http://www.w3.org/2000/svg"
   xmlns="http://www.w3.org/2000/svg"
   xmlns:sodipodi="http://sodipodi.sourceforge.net/DTD/sodipodi-0.dtd"
   xmlns:inkscape="http://www.inkscape.org/namespaces/inkscape"
   height="48"
   width="48"
   version="1.1"
   id="svg4"
   sodipodi:docname="child_care_FILL0_wght400_GRAD0_opsz48.svg"
   inkscape:version="1.0.1 (3bc2e813f5, 2020-09-07)">
  <metadata
     id="metadata10">
    <rdf:RDF>
      <cc:Work
         rdf:about="">
        <dc:format>image/svg+xml</dc:format>
        <dc:type
           rdf:resource="http://purl.org/dc/dcmitype/StillImage" />
      </cc:Work>
    </rdf:RDF>
  </metadata>
  <defs
     id="defs8" />
  <sodipodi:namedview
     pagecolor="#ffffff"
     bordercolor="#666666"
     borderopacity="1"
     objecttolerance="10"
     gridtolerance="10"
     guidetolerance="10"
     inkscape:pageopacity="0"
     inkscape:pageshadow="2"
     inkscape:window-width="1920"
     inkscape:window-height="1009"
     id="namedview6"
     showgrid="false"
     inkscape:zoom="17.541667"
     inkscape:cx="24"
     inkscape:cy="24"
     inkscape:window-x="-8"
     inkscape:window-y="-8"
     inkscape:window-maximized="1"
     inkscape:current-layer="svg4" />
  <path
     d="M29.2 22.9q-.95 0-1.6-.65-.65-.65-.65-1.6 0-.95.65-1.6.65-.65 1.6-.65.95 0 1.6.65.65.65.65 1.6 0 .95-.65 1.6-.65.65-1.6.65Zm-10.45 0q-.95 0-1.6-.65-.65-.65-.65-1.6 0-.95.65-1.6.65-.65 1.6-.65.95 0 1.6.65.65.65.65 1.6 0 .95-.65 1.6-.65.65-1.6.65ZM24 33.7q-2.8 0-5.1-1.5t-3.6-3.95h17.4q-1.3 2.45-3.6 3.95T24 33.7Zm0 8.3q-3.7 0-6.975-1.425Q13.75 39.15 11.3 36.7q-2.45-2.45-3.875-5.725Q6 27.7 6 24q0-3.7 1.425-6.975Q8.85 13.75 11.3 11.3q2.45-2.45 5.725-3.875Q20.3 6 24 6q3.7 0 6.975 1.425Q34.25 8.85 36.7 11.3q2.45 2.45 3.875 5.725Q42 20.3 42 24q0 3.7-1.425 6.975Q39.15 34.25 36.7 36.7q-2.45 2.45-5.725 3.875Q27.7 42 24 42Zm0-3q6.15 0 10.575-4.375Q39 30.25 39 24.1t-4.35-10.75q-4.35-4.6-10.75-4.6H23q-.35 0-.9.05-.1.4-.175.95-.075.55-.075.95 0 1.25.825 2.075.825.825 2.075.825.6 0 1-.075t.75-.075q.5 0 .85.25t.35.75q0 .8-.75 1.225-.75.425-2.2.425-2.3 0-3.85-1.55-1.55-1.55-1.55-3.85 0-.25.025-.65t.125-.65q-4.55 1.65-7.525 5.5Q9 18.75 9 23.9q0 6.15 4.425 10.625T24 39Zm0-15.1Z"
     id="path2"
     style="fill:#ffffff;fill-opacity:1" />
</svg>
