<?xml version="1.0" encoding="UTF-8" standalone="no"?>
<svg
   xmlns:dc="http://purl.org/dc/elements/1.1/"
   xmlns:cc="http://creativecommons.org/ns#"
   xmlns:rdf="http://www.w3.org/1999/02/22-rdf-syntax-ns#"
   xmlns:svg="http://www.w3.org/2000/svg"
   xmlns="http://www.w3.org/2000/svg"
   xmlns:sodipodi="http://sodipodi.sourceforge.net/DTD/sodipodi-0.dtd"
   xmlns:inkscape="http://www.inkscape.org/namespaces/inkscape"
   height="48"
   width="48"
   version="1.1"
   id="svg4"
   sodipodi:docname="child_care_FILL1_wght400_GRAD0_opsz48.svg"
   inkscape:version="1.0.1 (3bc2e813f5, 2020-09-07)">
  <metadata
     id="metadata10">
    <rdf:RDF>
      <cc:Work
         rdf:about="">
        <dc:format>image/svg+xml</dc:format>
        <dc:type
           rdf:resource="http://purl.org/dc/dcmitype/StillImage" />
      </cc:Work>
    </rdf:RDF>
  </metadata>
  <defs
     id="defs8" />
  <sodipodi:namedview
     pagecolor="#ffffff"
     bordercolor="#666666"
     borderopacity="1"
     objecttolerance="10"
     gridtolerance="10"
     guidetolerance="10"
     inkscape:pageopacity="0"
     inkscape:pageshadow="2"
     inkscape:window-width="1920"
     inkscape:window-height="1009"
     id="namedview6"
     showgrid="false"
     inkscape:zoom="17.541667"
     inkscape:cx="24"
     inkscape:cy="24"
     inkscape:window-x="-8"
     inkscape:window-y="-8"
     inkscape:window-maximized="1"
     inkscape:current-layer="svg4" />
  <path
     d="M29.2 22.9q.95 0 1.6-.65.65-.65.65-1.6 0-.95-.65-1.6-.65-.65-1.6-.65-.95 0-1.6.65-.65.65-.65 1.6 0 .95.65 1.6.65.65 1.6.65Zm-10.45 0q.95 0 1.6-.65.65-.65.65-1.6 0-.95-.65-1.6-.65-.65-1.6-.65-.95 0-1.6.65-.65.65-.65 1.6 0 .95.65 1.6.65.65 1.6.65ZM24 33.7q2.7 0 5.05-1.45 2.35-1.45 3.65-4H15.3q1.3 2.55 3.65 4Q21.3 33.7 24 33.7Zm0 8.3q-3.7 0-6.975-1.425Q13.75 39.15 11.3 36.7q-2.45-2.45-3.875-5.725Q6 27.7 6 24q0-3.7 1.425-6.975Q8.85 13.75 11.3 11.3q2.45-2.45 5.725-3.875Q20.3 6 24 6q3.7 0 6.975 1.425Q34.25 8.85 36.7 11.3q2.45 2.45 3.875 5.725Q42 20.3 42 24q0 3.7-1.425 6.975Q39.15 34.25 36.7 36.7q-2.45 2.45-5.725 3.875Q27.7 42 24 42Zm.75-25.9q1.45 0 2.2-.425.75-.425.75-1.225 0-.45-.325-.725-.325-.275-.875-.275-.35 0-.75.075t-1 .075q-1.25 0-2.075-.825-.825-.825-.825-2.075 0-.5.075-1.025Q22 9.15 22.1 8.8q-.7.1-1.3.225-.6.125-1.3.375-.1.25-.125.625-.025.375-.025.675 0 2.3 1.55 3.85 1.55 1.55 3.85 1.55Z"
     id="path2"
     style="fill:#ffffff;fill-opacity:1" />
</svg>
