<?xml version="1.0" encoding="UTF-8" standalone="no"?>
<svg
   xmlns:dc="http://purl.org/dc/elements/1.1/"
   xmlns:cc="http://creativecommons.org/ns#"
   xmlns:rdf="http://www.w3.org/1999/02/22-rdf-syntax-ns#"
   xmlns:svg="http://www.w3.org/2000/svg"
   xmlns="http://www.w3.org/2000/svg"
   xmlns:sodipodi="http://sodipodi.sourceforge.net/DTD/sodipodi-0.dtd"
   xmlns:inkscape="http://www.inkscape.org/namespaces/inkscape"
   height="48"
   width="48"
   version="1.1"
   id="svg4"
   sodipodi:docname="directions_car_FILL1_wght400_GRAD0_opsz48.svg"
   inkscape:version="1.0.1 (3bc2e813f5, 2020-09-07)">
  <metadata
     id="metadata10">
    <rdf:RDF>
      <cc:Work
         rdf:about="">
        <dc:format>image/svg+xml</dc:format>
        <dc:type
           rdf:resource="http://purl.org/dc/dcmitype/StillImage" />
      </cc:Work>
    </rdf:RDF>
  </metadata>
  <defs
     id="defs8" />
  <sodipodi:namedview
     pagecolor="#ffffff"
     bordercolor="#666666"
     borderopacity="1"
     objecttolerance="10"
     gridtolerance="10"
     guidetolerance="10"
     inkscape:pageopacity="0"
     inkscape:pageshadow="2"
     inkscape:window-width="1920"
     inkscape:window-height="1009"
     id="namedview6"
     showgrid="false"
     inkscape:zoom="17.541667"
     inkscape:cx="24"
     inkscape:cy="24"
     inkscape:window-x="-8"
     inkscape:window-y="-8"
     inkscape:window-maximized="1"
     inkscape:current-layer="svg4" />
  <path
     d="M10 37.8v2.7q0 .65-.425 1.075Q9.15 42 8.5 42h-1q-.65 0-1.075-.425Q6 41.15 6 40.5V24.3l4.25-12.8q.25-.7.825-1.1.575-.4 1.325-.4h23.2q.75 0 1.325.4t.825 1.1L42 24.3v16.2q0 .65-.425 1.075Q41.15 42 40.5 42h-1.05q-.65 0-1.075-.425-.425-.425-.425-1.075v-2.7Zm.15-16.5h27.7L35.1 13H12.9Zm4.15 11q1.15 0 1.925-.8.775-.8.775-1.9 0-1.15-.775-1.975-.775-.825-1.925-.825t-1.975.825q-.825.825-.825 1.975 0 1.15.825 1.925.825.775 1.975.775Zm19.45 0q1.15 0 1.975-.8.825-.8.825-1.9 0-1.15-.825-1.975-.825-.825-1.975-.825-1.15 0-1.925.825-.775.825-.775 1.975 0 1.15.8 1.925.8.775 1.9.775Z"
     id="path2"
     style="fill:#ffffff;fill-opacity:1" />
</svg>
