<?xml version="1.0" encoding="UTF-8" standalone="no"?>
<svg
   xmlns:dc="http://purl.org/dc/elements/1.1/"
   xmlns:cc="http://creativecommons.org/ns#"
   xmlns:rdf="http://www.w3.org/1999/02/22-rdf-syntax-ns#"
   xmlns:svg="http://www.w3.org/2000/svg"
   xmlns="http://www.w3.org/2000/svg"
   xmlns:sodipodi="http://sodipodi.sourceforge.net/DTD/sodipodi-0.dtd"
   xmlns:inkscape="http://www.inkscape.org/namespaces/inkscape"
   height="48"
   width="48"
   version="1.1"
   id="svg4"
   sodipodi:docname="local_gas_station_FILL1_wght400_GRAD0_opsz48.svg"
   inkscape:version="1.0.1 (3bc2e813f5, 2020-09-07)">
  <metadata
     id="metadata10">
    <rdf:RDF>
      <cc:Work
         rdf:about="">
        <dc:format>image/svg+xml</dc:format>
        <dc:type
           rdf:resource="http://purl.org/dc/dcmitype/StillImage" />
      </cc:Work>
    </rdf:RDF>
  </metadata>
  <defs
     id="defs8" />
  <sodipodi:namedview
     pagecolor="#ffffff"
     bordercolor="#666666"
     borderopacity="1"
     objecttolerance="10"
     gridtolerance="10"
     guidetolerance="10"
     inkscape:pageopacity="0"
     inkscape:pageshadow="2"
     inkscape:window-width="1920"
     inkscape:window-height="1009"
     id="namedview6"
     showgrid="false"
     inkscape:zoom="17.541667"
     inkscape:cx="24"
     inkscape:cy="24"
     inkscape:window-x="-8"
     inkscape:window-y="-8"
     inkscape:window-maximized="1"
     inkscape:current-layer="svg4"
     inkscape:document-rotation="0" />
  <path
     d="M8 42V9q0-1.2.9-2.1Q9.8 6 11 6h13.45q1.2 0 2.1.9.9.9.9 2.1v14.4h3.25q1.05 0 1.775.725.725.725.725 1.775v10.95q0 1.1.775 1.825.775.725 1.875.725t1.875-.725q.775-.725.775-1.825V22.1q-.55.3-1.15.45-.6.15-1.2.15-1.95 0-3.325-1.375Q31.45 19.95 31.45 18q0-1.6.9-2.85t2.4-1.65L30 8.75 31.8 7l7.65 7.65q.7.7 1.125 1.525Q41 17 41 18v18.85q0 2.15-1.5 3.65T35.85 42q-2.15 0-3.65-1.5t-1.5-3.65V25.9h-3.25V42Zm3-21.6h13.45V9H11Zm25.15-.2q.9 0 1.55-.65t.65-1.55q0-.9-.65-1.55t-1.55-.65q-.9 0-1.55.65T33.95 18q0 .9.65 1.55t1.55.65Z"
     id="path2"
     style="fill:#ffffff;fill-opacity:1" />
</svg>
