<?xml version="1.0" encoding="UTF-8" standalone="no"?>
<svg
   xmlns:dc="http://purl.org/dc/elements/1.1/"
   xmlns:cc="http://creativecommons.org/ns#"
   xmlns:rdf="http://www.w3.org/1999/02/22-rdf-syntax-ns#"
   xmlns:svg="http://www.w3.org/2000/svg"
   xmlns="http://www.w3.org/2000/svg"
   xmlns:sodipodi="http://sodipodi.sourceforge.net/DTD/sodipodi-0.dtd"
   xmlns:inkscape="http://www.inkscape.org/namespaces/inkscape"
   height="48"
   width="48"
   version="1.1"
   id="svg4"
   sodipodi:docname="payments_FILL0_wght400_GRAD0_opsz48.svg"
   inkscape:version="1.0.1 (3bc2e813f5, 2020-09-07)">
  <metadata
     id="metadata10">
    <rdf:RDF>
      <cc:Work
         rdf:about="">
        <dc:format>image/svg+xml</dc:format>
        <dc:type
           rdf:resource="http://purl.org/dc/dcmitype/StillImage" />
      </cc:Work>
    </rdf:RDF>
  </metadata>
  <defs
     id="defs8" />
  <sodipodi:namedview
     pagecolor="#ffffff"
     bordercolor="#666666"
     borderopacity="1"
     objecttolerance="10"
     gridtolerance="10"
     guidetolerance="10"
     inkscape:pageopacity="0"
     inkscape:pageshadow="2"
     inkscape:window-width="1920"
     inkscape:window-height="1009"
     id="namedview6"
     showgrid="false"
     inkscape:zoom="17.541667"
     inkscape:cx="24"
     inkscape:cy="24"
     inkscape:window-x="-8"
     inkscape:window-y="-8"
     inkscape:window-maximized="1"
     inkscape:current-layer="svg4" />
  <path
     d="M27 27q-2.5 0-4.25-1.75T21 21q0-2.5 1.75-4.25T27 15q2.5 0 4.25 1.75T33 21q0 2.5-1.75 4.25T27 27Zm-16 7q-1.25 0-2.125-.875T8 31V11q0-1.25.875-2.125T11 8h32q1.25 0 2.125.875T46 11v20q0 1.25-.875 2.125T43 34Zm5-3h22q0-2.1 1.45-3.55Q40.9 26 43 26V16q-2.1 0-3.55-1.45Q38 13.1 38 11H16q0 2.1-1.45 3.55Q13.1 16 11 16v10q2.1 0 3.55 1.45Q16 28.9 16 31Zm24 9H5q-1.25 0-2.125-.875T2 37V14h3v23h35Zm-29-9V11v20Z"
     id="path2"
     style="fill:#ffffff;fill-opacity:1" />
</svg>
