<?xml version="1.0" encoding="UTF-8" standalone="no"?>
<svg
   xmlns:dc="http://purl.org/dc/elements/1.1/"
   xmlns:cc="http://creativecommons.org/ns#"
   xmlns:rdf="http://www.w3.org/1999/02/22-rdf-syntax-ns#"
   xmlns:svg="http://www.w3.org/2000/svg"
   xmlns="http://www.w3.org/2000/svg"
   xmlns:sodipodi="http://sodipodi.sourceforge.net/DTD/sodipodi-0.dtd"
   xmlns:inkscape="http://www.inkscape.org/namespaces/inkscape"
   height="48"
   width="48"
   version="1.1"
   id="svg4"
   sodipodi:docname="personal_injury_FILL1_wght400_GRAD0_opsz48.svg"
   inkscape:version="1.0.1 (3bc2e813f5, 2020-09-07)">
  <metadata
     id="metadata10">
    <rdf:RDF>
      <cc:Work
         rdf:about="">
        <dc:format>image/svg+xml</dc:format>
        <dc:type
           rdf:resource="http://purl.org/dc/dcmitype/StillImage" />
      </cc:Work>
    </rdf:RDF>
  </metadata>
  <defs
     id="defs8" />
  <sodipodi:namedview
     pagecolor="#ffffff"
     bordercolor="#666666"
     borderopacity="1"
     objecttolerance="10"
     gridtolerance="10"
     guidetolerance="10"
     inkscape:pageopacity="0"
     inkscape:pageshadow="2"
     inkscape:window-width="1920"
     inkscape:window-height="1009"
     id="namedview6"
     showgrid="false"
     inkscape:zoom="17.541667"
     inkscape:cx="24"
     inkscape:cy="24"
     inkscape:window-x="-8"
     inkscape:window-y="-8"
     inkscape:window-maximized="1"
     inkscape:current-layer="svg4" />
  <path
     d="M24 19q-3.15 0-5.325-2.175Q16.5 14.65 16.5 11.5q0-3.15 2.175-5.325Q20.85 4 24 4q3.15 0 5.325 2.175Q31.5 8.35 31.5 11.5q0 3.15-2.175 5.325Q27.15 19 24 19Zm-4.5 22q-.85 0-1.425-.575Q17.5 39.85 17.5 39q0-.85.575-1.425Q18.65 37 19.5 37h4.55l-1.85 4ZM8 44V30.8q0-1.75.9-3.175.9-1.425 2.5-2.125 3-1.35 6.15-2.175Q20.7 22.5 24 22.5q1.6 0 3.15.2 1.55.2 3.05.6L25.4 34h-5.9q-2.1 0-3.55 1.45Q14.5 36.9 14.5 39q0 2.1 1.45 3.55Q17.4 44 19.5 44Zm25.15 0V24.15q.85.3 1.7.625t1.7.725q1.6.7 2.525 2.125Q40 29.05 40 30.8V41q0 1.25-.875 2.125T37 44Z"
     id="path2"
     style="fill:#ffffff;fill-opacity:1" />
</svg>
