<?xml version="1.0" encoding="UTF-8" standalone="no"?>
<svg
   xmlns:dc="http://purl.org/dc/elements/1.1/"
   xmlns:cc="http://creativecommons.org/ns#"
   xmlns:rdf="http://www.w3.org/1999/02/22-rdf-syntax-ns#"
   xmlns:svg="http://www.w3.org/2000/svg"
   xmlns="http://www.w3.org/2000/svg"
   xmlns:sodipodi="http://sodipodi.sourceforge.net/DTD/sodipodi-0.dtd"
   xmlns:inkscape="http://www.inkscape.org/namespaces/inkscape"
   height="48"
   width="48"
   version="1.1"
   id="svg4"
   sodipodi:docname="personal_injury_FILL0_wght400_GRAD0_opsz48.svg"
   inkscape:version="1.0.1 (3bc2e813f5, 2020-09-07)">
  <metadata
     id="metadata10">
    <rdf:RDF>
      <cc:Work
         rdf:about="">
        <dc:format>image/svg+xml</dc:format>
        <dc:type
           rdf:resource="http://purl.org/dc/dcmitype/StillImage" />
      </cc:Work>
    </rdf:RDF>
  </metadata>
  <defs
     id="defs8" />
  <sodipodi:namedview
     pagecolor="#ffffff"
     bordercolor="#666666"
     borderopacity="1"
     objecttolerance="10"
     gridtolerance="10"
     guidetolerance="10"
     inkscape:pageopacity="0"
     inkscape:pageshadow="2"
     inkscape:window-width="1920"
     inkscape:window-height="1009"
     id="namedview6"
     showgrid="false"
     inkscape:zoom="17.541667"
     inkscape:cx="24"
     inkscape:cy="24"
     inkscape:window-x="-8"
     inkscape:window-y="-8"
     inkscape:window-maximized="1"
     inkscape:current-layer="svg4" />
  <path
     d="M24 19q-3.3 0-5.4-2.1-2.1-2.1-2.1-5.4 0-3.3 2.1-5.4Q20.7 4 24 4q3.3 0 5.4 2.1 2.1 2.1 2.1 5.4 0 3.3-2.1 5.4Q27.3 19 24 19Zm0-3q1.95 0 3.225-1.275Q28.5 13.45 28.5 11.5q0-1.95-1.275-3.225Q25.95 7 24 7q-1.95 0-3.225 1.275Q19.5 9.55 19.5 11.5q0 1.95 1.275 3.225Q22.05 16 24 16ZM8 44V30.8q0-1.9.95-3.25t2.45-2.05q2.55-1.15 5.725-2.075Q20.3 22.5 24 22.5t6.85.925q3.15.925 5.7 2.075 1.55.7 2.5 2.05.95 1.35.95 3.25V41q0 1.2-.9 2.1-.9.9-2.1.9H19.5q-2.1 0-3.55-1.45Q14.5 41.1 14.5 39q0-2.1 1.45-3.55Q17.4 34 19.5 34h5.9l3.6-8q-1.3-.25-2.575-.375Q25.15 25.5 24 25.5q-3.6 0-6.425.825-2.825.825-4.975 1.875-.7.35-1.15 1.05-.45.7-.45 1.55V44Zm11.5-3h2.7l1.85-4H19.5q-.8 0-1.4.6-.6.6-.6 1.4 0 .8.6 1.4.6.6 1.4.6Zm6 0H37V30.8q0-.85-.475-1.55-.475-.7-1.175-1.05-.6-.3-1.45-.65-.85-.35-1.95-.75ZM24 11.5Zm0 22.15Z"
     id="path2"
     style="fill:#ffffff;fill-opacity:1" />
</svg>
