<?xml version="1.0" encoding="UTF-8" standalone="no"?>
<svg
   xmlns:dc="http://purl.org/dc/elements/1.1/"
   xmlns:cc="http://creativecommons.org/ns#"
   xmlns:rdf="http://www.w3.org/1999/02/22-rdf-syntax-ns#"
   xmlns:svg="http://www.w3.org/2000/svg"
   xmlns="http://www.w3.org/2000/svg"
   xmlns:sodipodi="http://sodipodi.sourceforge.net/DTD/sodipodi-0.dtd"
   xmlns:inkscape="http://www.inkscape.org/namespaces/inkscape"
   height="48"
   width="48"
   version="1.1"
   id="svg4"
   sodipodi:docname="redeem_FILL1_wght400_GRAD0_opsz48.svg"
   inkscape:version="1.0.1 (3bc2e813f5, 2020-09-07)">
  <metadata
     id="metadata10">
    <rdf:RDF>
      <cc:Work
         rdf:about="">
        <dc:format>image/svg+xml</dc:format>
        <dc:type
           rdf:resource="http://purl.org/dc/dcmitype/StillImage" />
      </cc:Work>
    </rdf:RDF>
  </metadata>
  <defs
     id="defs8" />
  <sodipodi:namedview
     pagecolor="#ffffff"
     bordercolor="#666666"
     borderopacity="1"
     objecttolerance="10"
     gridtolerance="10"
     guidetolerance="10"
     inkscape:pageopacity="0"
     inkscape:pageshadow="2"
     inkscape:window-width="1920"
     inkscape:window-height="1009"
     id="namedview6"
     showgrid="false"
     inkscape:zoom="17.541667"
     inkscape:cx="24"
     inkscape:cy="24"
     inkscape:window-x="-8"
     inkscape:window-y="-8"
     inkscape:window-maximized="1"
     inkscape:current-layer="svg4" />
  <path
     d="M7 34.15V39h34v-4.85ZM7 12h6.25q-.25-.45-.4-1.125-.15-.675-.15-1.225 0-2.35 1.65-4T18.3 4q1.55 0 2.85.775T23.2 6.75l.85 1.3.8-1.3q.8-1.25 2.05-2Q28.15 4 29.6 4q2.4 0 4.05 1.625T35.3 9.65q0 .55-.125 1.1T34.8 12H41q1.2 0 2.1.9.9.9.9 2.1v24q0 1.2-.9 2.1-.9.9-2.1.9H7q-1.2 0-2.1-.9Q4 40.2 4 39V15q0-1.2.9-2.1.9-.9 2.1-.9Zm0 16.8h34V15H28.55l5 6.95-2.4 1.8-7.15-9.9-7.15 9.9-2.4-1.8 5-6.95H7Zm11.35-16.5q1.1 0 1.875-.775Q21 10.75 21 9.65t-.775-1.875Q19.45 7 18.35 7t-1.875.775Q15.7 8.55 15.7 9.65t.775 1.875q.775.775 1.875.775Zm11.25 0q1.15 0 1.925-.775.775-.775.775-1.875t-.775-1.875Q30.75 7 29.6 7q-1.05 0-1.825.775Q27 8.55 27 9.65t.775 1.875q.775.775 1.825.775Z"
     id="path2"
     style="fill:#ffffff;fill-opacity:1" />
</svg>
