<?xml version="1.0" encoding="UTF-8" standalone="no"?>
<svg
   xmlns:dc="http://purl.org/dc/elements/1.1/"
   xmlns:cc="http://creativecommons.org/ns#"
   xmlns:rdf="http://www.w3.org/1999/02/22-rdf-syntax-ns#"
   xmlns:svg="http://www.w3.org/2000/svg"
   xmlns="http://www.w3.org/2000/svg"
   xmlns:sodipodi="http://sodipodi.sourceforge.net/DTD/sodipodi-0.dtd"
   xmlns:inkscape="http://www.inkscape.org/namespaces/inkscape"
   height="48"
   width="48"
   version="1.1"
   id="svg4"
   sodipodi:docname="request_quote_FILL1_wght400_GRAD0_opsz48.svg"
   inkscape:version="1.0.1 (3bc2e813f5, 2020-09-07)">
  <metadata
     id="metadata10">
    <rdf:RDF>
      <cc:Work
         rdf:about="">
        <dc:format>image/svg+xml</dc:format>
        <dc:type
           rdf:resource="http://purl.org/dc/dcmitype/StillImage" />
      </cc:Work>
    </rdf:RDF>
  </metadata>
  <defs
     id="defs8" />
  <sodipodi:namedview
     pagecolor="#ffffff"
     bordercolor="#666666"
     borderopacity="1"
     objecttolerance="10"
     gridtolerance="10"
     guidetolerance="10"
     inkscape:pageopacity="0"
     inkscape:pageshadow="2"
     inkscape:window-width="1920"
     inkscape:window-height="1009"
     id="namedview6"
     showgrid="false"
     inkscape:zoom="17.541667"
     inkscape:cx="24"
     inkscape:cy="24"
     inkscape:window-x="-8"
     inkscape:window-y="-8"
     inkscape:window-maximized="1"
     inkscape:current-layer="svg4" />
  <path
     d="M11 44q-1.2 0-2.1-.9Q8 42.2 8 41V7q0-1.2.9-2.1Q9.8 4 11 4h18.05L40 14.95V41q0 1.2-.9 2.1-.9.9-2.1.9Zm11.5-6.05h3v-2h3q.65 0 1.075-.425Q30 35.1 30 34.45v-6.5q0-.65-.425-1.075-.425-.425-1.075-.425H21v-3.5h9v-3h-4.5v-2h-3v2h-3q-.65 0-1.075.425Q18 20.8 18 21.45v6.5q0 .65.425 1.075.425.425 1.075.425H27v3.5h-9v3h4.5Zm5.3-23h7.95L27.8 7Z"
     id="path2"
     style="fill:#ffffff;fill-opacity:1" />
</svg>
