<?xml version="1.0" encoding="UTF-8" standalone="no"?>
<svg
   xmlns:dc="http://purl.org/dc/elements/1.1/"
   xmlns:cc="http://creativecommons.org/ns#"
   xmlns:rdf="http://www.w3.org/1999/02/22-rdf-syntax-ns#"
   xmlns:svg="http://www.w3.org/2000/svg"
   xmlns="http://www.w3.org/2000/svg"
   xmlns:sodipodi="http://sodipodi.sourceforge.net/DTD/sodipodi-0.dtd"
   xmlns:inkscape="http://www.inkscape.org/namespaces/inkscape"
   height="48"
   width="48"
   version="1.1"
   id="svg4"
   sodipodi:docname="shopping_cart_FILL0_wght400_GRAD0_opsz48.svg"
   inkscape:version="1.0.1 (3bc2e813f5, 2020-09-07)">
  <metadata
     id="metadata10">
    <rdf:RDF>
      <cc:Work
         rdf:about="">
        <dc:format>image/svg+xml</dc:format>
        <dc:type
           rdf:resource="http://purl.org/dc/dcmitype/StillImage" />
      </cc:Work>
    </rdf:RDF>
  </metadata>
  <defs
     id="defs8" />
  <sodipodi:namedview
     pagecolor="#ffffff"
     bordercolor="#666666"
     borderopacity="1"
     objecttolerance="10"
     gridtolerance="10"
     guidetolerance="10"
     inkscape:pageopacity="0"
     inkscape:pageshadow="2"
     inkscape:window-width="1920"
     inkscape:window-height="1009"
     id="namedview6"
     showgrid="false"
     inkscape:zoom="17.541667"
     inkscape:cx="24"
     inkscape:cy="24"
     inkscape:window-x="-8"
     inkscape:window-y="-8"
     inkscape:window-maximized="1"
     inkscape:current-layer="svg4" />
  <path
     d="M14.35 43.95q-1.5 0-2.55-1.05-1.05-1.05-1.05-2.55 0-1.5 1.05-2.55 1.05-1.05 2.55-1.05 1.5 0 2.55 1.05 1.05 1.05 1.05 2.55 0 1.5-1.05 2.55-1.05 1.05-2.55 1.05Zm20 0q-1.5 0-2.55-1.05-1.05-1.05-1.05-2.55 0-1.5 1.05-2.55 1.05-1.05 2.55-1.05 1.5 0 2.55 1.05 1.05 1.05 1.05 2.55 0 1.5-1.05 2.55-1.05 1.05-2.55 1.05Zm-22.6-33 5.5 11.4h14.4l6.25-11.4Zm-1.5-3H39.7q1.15 0 1.75 1.05.6 1.05 0 2.1L34.7 23.25q-.55.95-1.425 1.525t-1.925.575H16.2l-2.8 5.2h24.55v3h-24.1q-2.1 0-3.025-1.4-.925-1.4.025-3.15l3.2-5.9L6.45 7h-3.9V4H8.4Zm7 14.4h14.4Z"
     id="path2"
     style="fill:#ffffff;fill-opacity:1" />
</svg>
