<?xml version="1.0" encoding="UTF-8" standalone="no"?>
<svg
   xmlns:dc="http://purl.org/dc/elements/1.1/"
   xmlns:cc="http://creativecommons.org/ns#"
   xmlns:rdf="http://www.w3.org/1999/02/22-rdf-syntax-ns#"
   xmlns:svg="http://www.w3.org/2000/svg"
   xmlns="http://www.w3.org/2000/svg"
   xmlns:sodipodi="http://sodipodi.sourceforge.net/DTD/sodipodi-0.dtd"
   xmlns:inkscape="http://www.inkscape.org/namespaces/inkscape"
   height="48"
   width="48"
   version="1.1"
   id="svg4"
   sodipodi:docname="train_FILL1_wght400_GRAD0_opsz48.svg"
   inkscape:version="1.0.1 (3bc2e813f5, 2020-09-07)">
  <metadata
     id="metadata10">
    <rdf:RDF>
      <cc:Work
         rdf:about="">
        <dc:format>image/svg+xml</dc:format>
        <dc:type
           rdf:resource="http://purl.org/dc/dcmitype/StillImage" />
      </cc:Work>
    </rdf:RDF>
  </metadata>
  <defs
     id="defs8" />
  <sodipodi:namedview
     pagecolor="#ffffff"
     bordercolor="#666666"
     borderopacity="1"
     objecttolerance="10"
     gridtolerance="10"
     guidetolerance="10"
     inkscape:pageopacity="0"
     inkscape:pageshadow="2"
     inkscape:window-width="1920"
     inkscape:window-height="1009"
     id="namedview6"
     showgrid="false"
     inkscape:zoom="17.541667"
     inkscape:cx="24"
     inkscape:cy="24"
     inkscape:window-x="-8"
     inkscape:window-y="-8"
     inkscape:window-maximized="1"
     inkscape:current-layer="svg4" />
  <path
     d="M8 31V12q0-2.05.95-3.575.95-1.525 2.925-2.5 1.975-.975 5-1.45T24 4q4.3 0 7.325.45 3.025.45 4.95 1.425Q38.2 6.85 39.1 8.35q.9 1.5.9 3.65v19q0 2.95-2.025 4.975Q35.95 38 33 38l3 3v1h-3.5l-4-4h-9l-4 4H12v-1l3-3q-2.95 0-4.975-2.025Q8 33.95 8 31Zm3-10.25h11.7V13H11Zm14.7 0H37V13H25.7Zm-8.95 11.5q1.15 0 1.95-.8t.8-1.95q0-1.15-.8-1.95t-1.95-.8q-1.15 0-1.95.8T14 29.5q0 1.15.8 1.95t1.95.8Zm14.5 0q1.15 0 1.95-.8t.8-1.95q0-1.15-.8-1.95t-1.95-.8q-1.15 0-1.95.8t-.8 1.95q0 1.15.8 1.95t1.95.8Z"
     id="path2"
     style="fill:#ffffff;fill-opacity:1" />
</svg>
