<?xml version="1.0" encoding="UTF-8" standalone="no"?>
<svg
   xmlns:dc="http://purl.org/dc/elements/1.1/"
   xmlns:cc="http://creativecommons.org/ns#"
   xmlns:rdf="http://www.w3.org/1999/02/22-rdf-syntax-ns#"
   xmlns:svg="http://www.w3.org/2000/svg"
   xmlns="http://www.w3.org/2000/svg"
   xmlns:sodipodi="http://sodipodi.sourceforge.net/DTD/sodipodi-0.dtd"
   xmlns:inkscape="http://www.inkscape.org/namespaces/inkscape"
   height="48"
   width="48"
   version="1.1"
   id="svg4"
   sodipodi:docname="water_drop_FILL0_wght400_GRAD0_opsz48.svg"
   inkscape:version="1.0.1 (3bc2e813f5, 2020-09-07)">
  <metadata
     id="metadata10">
    <rdf:RDF>
      <cc:Work
         rdf:about="">
        <dc:format>image/svg+xml</dc:format>
        <dc:type
           rdf:resource="http://purl.org/dc/dcmitype/StillImage" />
      </cc:Work>
    </rdf:RDF>
  </metadata>
  <defs
     id="defs8" />
  <sodipodi:namedview
     pagecolor="#ffffff"
     bordercolor="#666666"
     borderopacity="1"
     objecttolerance="10"
     gridtolerance="10"
     guidetolerance="10"
     inkscape:pageopacity="0"
     inkscape:pageshadow="2"
     inkscape:window-width="1920"
     inkscape:window-height="1009"
     id="namedview6"
     showgrid="false"
     inkscape:zoom="17.541667"
     inkscape:cx="24"
     inkscape:cy="24"
     inkscape:window-x="-8"
     inkscape:window-y="-8"
     inkscape:window-maximized="1"
     inkscape:current-layer="svg4" />
  <path
     d="M23.95 37.6q.8 0 1.225-.275.425-.275.425-.825 0-.55-.425-.85-.425-.3-1.275-.3-2.1 0-4.275-1.325Q17.45 32.7 16.85 29.35q-.1-.45-.45-.725-.35-.275-.75-.275-.55 0-.85.425-.3.425-.2.875.75 4.2 3.55 6.075t5.8 1.875ZM24 44q-6.85 0-11.425-4.7Q8 34.6 8 27.6q0-5 3.975-10.875T24 4q8.05 6.85 12.025 12.725Q40 22.6 40 27.6q0 7-4.575 11.7Q30.85 44 24 44Zm0-3q5.6 0 9.3-3.825Q37 33.35 37 27.6q0-3.95-3.325-8.975Q30.35 13.6 24 8q-6.35 5.6-9.675 10.625Q11 23.65 11 27.6q0 5.75 3.7 9.575Q18.4 41 24 41Zm0-17Z"
     id="path2"
     style="fill:#ffffff;fill-opacity:1" />
</svg>
