<?xml version="1.0" encoding="UTF-8" standalone="no"?>
<svg
   xmlns:dc="http://purl.org/dc/elements/1.1/"
   xmlns:cc="http://creativecommons.org/ns#"
   xmlns:rdf="http://www.w3.org/1999/02/22-rdf-syntax-ns#"
   xmlns:svg="http://www.w3.org/2000/svg"
   xmlns="http://www.w3.org/2000/svg"
   xmlns:sodipodi="http://sodipodi.sourceforge.net/DTD/sodipodi-0.dtd"
   xmlns:inkscape="http://www.inkscape.org/namespaces/inkscape"
   height="48"
   width="48"
   version="1.1"
   id="svg4"
   sodipodi:docname="wifi_FILL1_wght400_GRAD0_opsz48.svg"
   inkscape:version="1.0.1 (3bc2e813f5, 2020-09-07)">
  <metadata
     id="metadata10">
    <rdf:RDF>
      <cc:Work
         rdf:about="">
        <dc:format>image/svg+xml</dc:format>
        <dc:type
           rdf:resource="http://purl.org/dc/dcmitype/StillImage" />
      </cc:Work>
    </rdf:RDF>
  </metadata>
  <defs
     id="defs8" />
  <sodipodi:namedview
     pagecolor="#ffffff"
     bordercolor="#666666"
     borderopacity="1"
     objecttolerance="10"
     gridtolerance="10"
     guidetolerance="10"
     inkscape:pageopacity="0"
     inkscape:pageshadow="2"
     inkscape:window-width="1920"
     inkscape:window-height="1009"
     id="namedview6"
     showgrid="false"
     inkscape:zoom="17.541667"
     inkscape:cx="24"
     inkscape:cy="24"
     inkscape:window-x="-8"
     inkscape:window-y="-8"
     inkscape:window-maximized="1"
     inkscape:current-layer="svg4" />
  <path
     d="M11.6 30.15 8.45 27q3.5-3.5 7.325-5.25T24 20q4.4 0 8.225 1.75Q36.05 23.5 39.55 27l-3.15 3.15q-3.05-3.05-6.15-4.35-3.1-1.3-6.25-1.3t-6.25 1.3q-3.1 1.3-6.15 4.35ZM3.15 21.7 0 18.55q4.65-4.75 10.825-7.65Q17 8 24 8q7 0 13.175 2.9Q43.35 13.8 48 18.55l-3.15 3.15q-4.4-4.2-9.625-6.7T24 12.5q-6 0-11.225 2.5T3.15 21.7ZM24 42.55l7.4-7.45q-1.45-1.45-3.325-2.275Q26.2 32 24 32t-4.075.825Q18.05 33.65 16.6 35.1Z"
     id="path2"
     style="fill:#ffffff;fill-opacity:1" />
</svg>
