<svg
    xmlns="http://www.w3.org/2000/svg"
    viewBox="0 0 24 24"
    id="vector"
    width="24px"
    height="24px">
    <g id="group">
        <path
            id="path"
            d="M 6.5 21 L 3 21 C 2.45 21 2 20.55 2 20 L 2 11.333 C 2 10.783 2.45 10.333 3 10.333 L 6.5 10.333 C 7.05 10.333 7.5 10.783 7.5 11.333 L 7.5 20 C 7.5 20.55 7.05 21 6.5 21 Z M 13.75 12 L 10.25 12 C 9.7 12 9.25 12.45 9.25 13 L 9.25 20 C 9.25 20.55 9.7 21 10.25 21 L 13.75 21 C 14.3 21 14.75 20.55 14.75 20 L 14.75 13 C 14.75 12.45 14.3 12 13.75 12 Z M 21 6.333 L 17.5 6.333 C 16.95 6.333 16.5 6.783 16.5 7.333 L 16.5 20 C 16.5 20.55 16.95 21 17.5 21 L 21 21 C 21.55 21 22 20.55 22 20 L 22 7.333 C 22 6.783 21.55 6.333 21 6.333 Z"
            fill="#1d8afb"
            stroke-width="1"/>
    </g>
</svg>
