<svg
    xmlns="http://www.w3.org/2000/svg"
    viewBox="0 0 24 24"
    id="vector"
    width="24px"
    height="24px">
    <g id="group">
        <path
            id="path"
            d="M 6.5 21 L 3 21 C 2.45 21 2 20.55 2 20 L 2 13 C 2 12.45 2.45 12 3 12 L 6.5 12 C 7.05 12 7.5 12.45 7.5 13 L 7.5 20 C 7.5 20.55 7.05 21 6.5 21 Z M 13.75 4.333 L 10.25 4.333 C 9.7 4.333 9.25 4.783 9.25 5.333 L 9.25 20 C 9.25 20.55 9.7 21 10.25 21 L 13.75 21 C 14.3 21 14.75 20.55 14.75 20 L 14.75 5.333 C 14.75 4.783 14.3 4.333 13.75 4.333 Z M 21 6.333 L 17.5 6.333 C 16.95 6.333 16.5 6.783 16.5 7.333 L 16.5 20 C 16.5 20.55 16.95 21 17.5 21 L 21 21 C 21.55 21 22 20.55 22 20 L 22 7.333 C 22 6.783 21.55 6.333 21 6.333 Z"
            fill="#22c0fd"
            stroke-width="1"/>
    </g>
</svg>
