<svg
    xmlns="http://www.w3.org/2000/svg"
    viewBox="0 0 24 24"
    id="vector"
    width="24px"
    height="24px">
    <g id="group">
        <path
            id="path"
            d="M 6.5 21 L 3 21 C 2.45 21 2 20.55 2 20 L 2 16.333 C 2 15.783 2.45 15.333 3 15.333 L 6.5 15.333 C 7.05 15.333 7.5 15.783 7.5 16.333 L 7.5 20 C 7.5 20.55 7.05 21 6.5 21 Z M 13.75 7.667 L 10.25 7.667 C 9.7 7.667 9.25 8.117 9.25 8.667 L 9.25 20 C 9.25 20.55 9.7 21 10.25 21 L 13.75 21 C 14.3 21 14.75 20.55 14.75 20 L 14.75 8.667 C 14.75 8.117 14.3 7.667 13.75 7.667 Z M 21 13.667 L 17.5 13.667 C 16.95 13.667 16.5 14.117 16.5 14.667 L 16.5 20 C 16.5 20.55 16.95 21 17.5 21 L 21 21 C 21.55 21 22 20.55 22 20 L 22 14.667 C 22 14.117 21.55 13.667 21 13.667 Z"
            fill="#23cefe"
            stroke-width="1"/>
    </g>
</svg>
