<svg
    xmlns="http://www.w3.org/2000/svg"
    viewBox="0 0 24 24"
    id="vector"
    width="24px"
    height="24px">
    <g id="group">
        <path
            id="path"
            d="M 6.5 21 L 3 21 C 2.45 21 2 20.55 2 20 L 2 5 C 2 4.45 2.45 4 3 4 L 6.5 4 C 7.05 4 7.5 4.45 7.5 5 L 7.5 20 C 7.5 20.55 7.05 21 6.5 21 Z M 13.75 16.333 L 10.25 16.333 C 9.7 16.333 9.25 16.783 9.25 17.333 L 9.25 20 C 9.25 20.55 9.7 21 10.25 21 L 13.75 21 C 14.3 21 14.75 20.55 14.75 20 L 14.75 17.333 C 14.75 16.783 14.3 16.333 13.75 16.333 Z M 21 12 L 17.5 12 C 16.95 12 16.5 12.45 16.5 13 L 16.5 20 C 16.5 20.55 16.95 21 17.5 21 L 21 21 C 21.55 21 22 20.55 22 20 L 22 13 C 22 12.45 21.55 12 21 12 Z"
            fill="#21bbfd"
            stroke-width="1"/>
    </g>
</svg>
