<svg
    xmlns="http://www.w3.org/2000/svg"
    viewBox="0 0 24 24"
    id="vector"
    width="24px"
    height="24px">
    <g id="group">
        <path
            id="path"
            d="M 6.5 21 L 3 21 C 2.45 21 2 20.55 2 20 L 2 8 C 2 7.45 2.45 7 3 7 L 6.5 7 C 7.05 7 7.5 7.45 7.5 8 L 7.5 20 C 7.5 20.55 7.05 21 6.5 21 Z M 13.75 11 L 10.25 11 C 9.7 11 9.25 11.45 9.25 12 L 9.25 20 C 9.25 20.55 9.7 21 10.25 21 L 13.75 21 C 14.3 21 14.75 20.55 14.75 20 L 14.75 12 C 14.75 11.45 14.3 11 13.75 11 Z M 21 17 L 17.5 17 C 16.95 17 16.5 17.45 16.5 18 L 16.5 20 C 16.5 20.55 16.95 21 17.5 21 L 21 21 C 21.55 21 22 20.55 22 20 L 22 18 C 22 17.45 21.55 17 21 17 Z"
            fill="#23d0fe"
            stroke-width="1"/>
    </g>
</svg>
