<svg
    xmlns="http://www.w3.org/2000/svg"
    viewBox="0 0 24 24"
    id="vector"
    width="24px"
    height="24px">
    <g id="group">
        <path
            id="path"
            d="M 6.5 21 L 3 21 C 2.45 21 2 20.55 2 20 L 2 14.667 C 2 14.117 2.45 13.667 3 13.667 L 6.5 13.667 C 7.05 13.667 7.5 14.117 7.5 14.667 L 7.5 20 C 7.5 20.55 7.05 21 6.5 21 Z M 13.75 8.333 L 10.25 8.333 C 9.7 8.333 9.25 8.783 9.25 9.333 L 9.25 20 C 9.25 20.55 9.7 21 10.25 21 L 13.75 21 C 14.3 21 14.75 20.55 14.75 20 L 14.75 9.333 C 14.75 8.783 14.3 8.333 13.75 8.333 Z M 21 14.333 L 17.5 14.333 C 16.95 14.333 16.5 14.783 16.5 15.333 L 16.5 20 C 16.5 20.55 16.95 21 17.5 21 L 21 21 C 21.55 21 22 20.55 22 20 L 22 15.333 C 22 14.783 21.55 14.333 21 14.333 Z"
            fill="#d721fe"
            stroke-width="1"/>
    </g>
</svg>
