<svg
    xmlns="http://www.w3.org/2000/svg"
    viewBox="0 0 24 24"
    id="vector"
    width="24px"
    height="24px">
    <g id="group">
        <path
            id="path"
            d="M 6.5 21 L 3 21 C 2.45 21 2 20.55 2 20 L 2 9.667 C 2 9.117 2.45 8.667 3 8.667 L 6.5 8.667 C 7.05 8.667 7.5 9.117 7.5 9.667 L 7.5 20 C 7.5 20.55 7.05 21 6.5 21 Z M 13.75 10.333 L 10.25 10.333 C 9.7 10.333 9.25 10.783 9.25 11.333 L 9.25 20 C 9.25 20.55 9.7 21 10.25 21 L 13.75 21 C 14.3 21 14.75 20.55 14.75 20 L 14.75 11.333 C 14.75 10.783 14.3 10.333 13.75 10.333 Z M 21 16.333 L 17.5 16.333 C 16.95 16.333 16.5 16.783 16.5 17.333 L 16.5 20 C 16.5 20.55 16.95 21 17.5 21 L 21 21 C 21.55 21 22 20.55 22 20 L 22 17.333 C 22 16.783 21.55 16.333 21 16.333 Z"
            fill="#d821fe"
            stroke-width="1"/>
    </g>
</svg>
