<svg
    xmlns="http://www.w3.org/2000/svg"
    viewBox="0 0 24 24"
    id="vector"
    width="24px"
    height="24px">
    <g id="group">
        <path
            id="path"
            d="M 6.5 21 L 3 21 C 2.45 21 2 20.55 2 20 L 2 11 C 2 10.45 2.45 10 3 10 L 6.5 10 C 7.05 10 7.5 10.45 7.5 11 L 7.5 20 C 7.5 20.55 7.05 21 6.5 21 Z M 13.75 7 L 10.25 7 C 9.7 7 9.25 7.45 9.25 8 L 9.25 20 C 9.25 20.55 9.7 21 10.25 21 L 13.75 21 C 14.3 21 14.75 20.55 14.75 20 L 14.75 8 C 14.75 7.45 14.3 7 13.75 7 Z M 21 5 L 17.5 5 C 16.95 5 16.5 5.45 16.5 6 L 16.5 20 C 16.5 20.55 16.95 21 17.5 21 L 21 21 C 21.55 21 22 20.55 22 20 L 22 6 C 22 5.45 21.55 5 21 5 Z"
            fill="#c41ffd"
            stroke-width="1"/>
    </g>
</svg>
