<svg
    xmlns="http://www.w3.org/2000/svg"
    viewBox="0 0 24 24"
    id="vector"
    width="24px"
    height="24px">
    <g id="group">
        <path
            id="path"
            d="M 6.5 21 L 3 21 C 2.45 21 2 20.55 2 20 L 2 10 C 2 9.45 2.45 9 3 9 L 6.5 9 C 7.05 9 7.5 9.45 7.5 10 L 7.5 20 C 7.5 20.55 7.05 21 6.5 21 Z M 13.75 3 L 10.25 3 C 9.7 3 9.25 3.45 9.25 4 L 9.25 20 C 9.25 20.55 9.7 21 10.25 21 L 13.75 21 C 14.3 21 14.75 20.55 14.75 20 L 14.75 4 C 14.75 3.45 14.3 3 13.75 3 Z M 21 11 L 17.5 11 C 16.95 11 16.5 11.45 16.5 12 L 16.5 20 C 16.5 20.55 16.95 21 17.5 21 L 21 21 C 21.55 21 22 20.55 22 20 L 22 12 C 22 11.45 21.55 11 21 11 Z"
            fill="#8118f9"
            stroke-width="1"/>
    </g>
</svg>
