<svg
    xmlns="http://www.w3.org/2000/svg"
    viewBox="0 0 24 24"
    id="vector"
    width="24px"
    height="24px">
    <g id="group">
        <path
            id="path"
            d="M 6.5 21 L 3 21 C 2.45 21 2 20.55 2 20 L 2 8 C 2 7.45 2.45 7 3 7 L 6.5 7 C 7.05 7 7.5 7.45 7.5 8 L 7.5 20 C 7.5 20.55 7.05 21 6.5 21 Z M 13.75 6.333 L 10.25 6.333 C 9.7 6.333 9.25 6.783 9.25 7.333 L 9.25 20 C 9.25 20.55 9.7 21 10.25 21 L 13.75 21 C 14.3 21 14.75 20.55 14.75 20 L 14.75 7.333 C 14.75 6.783 14.3 6.333 13.75 6.333 Z M 21 9.667 L 17.5 9.667 C 16.95 9.667 16.5 10.117 16.5 10.667 L 16.5 20 C 16.5 20.55 16.95 21 17.5 21 L 21 21 C 21.55 21 22 20.55 22 20 L 22 10.667 C 22 10.117 21.55 9.667 21 9.667 Z"
            fill="#8218f9"
            stroke-width="1"/>
    </g>
</svg>
