<svg
    xmlns="http://www.w3.org/2000/svg"
    viewBox="0 0 24 24"
    id="vector"
    width="24px"
    height="24px">
    <g id="group">
        <path
            id="path"
            d="M 6.5 21 L 3 21 C 2.45 21 2 20.55 2 20 L 2 6.667 C 2 6.117 2.45 5.667 3 5.667 L 6.5 5.667 C 7.05 5.667 7.5 6.117 7.5 6.667 L 7.5 20 C 7.5 20.55 7.05 21 6.5 21 Z M 13.75 13 L 10.25 13 C 9.7 13 9.25 13.45 9.25 14 L 9.25 20 C 9.25 20.55 9.7 21 10.25 21 L 13.75 21 C 14.3 21 14.75 20.55 14.75 20 L 14.75 14 C 14.75 13.45 14.3 13 13.75 13 Z M 21 15.667 L 17.5 15.667 C 16.95 15.667 16.5 16.117 16.5 16.667 L 16.5 20 C 16.5 20.55 16.95 21 17.5 21 L 21 21 C 21.55 21 22 20.55 22 20 L 22 16.667 C 22 16.117 21.55 15.667 21 15.667 Z"
            fill="#d721fe"
            stroke-width="1"/>
    </g>
</svg>
