<svg
    xmlns="http://www.w3.org/2000/svg"
    viewBox="0 0 24 24"
    id="vector"
    width="24px"
    height="24px">
    <g id="group">
        <path
            id="path"
            d="M 6.5 21 L 3 21 C 2.45 21 2 20.55 2 20 L 2 9 C 2 8.45 2.45 8 3 8 L 6.5 8 C 7.05 8 7.5 8.45 7.5 9 L 7.5 20 C 7.5 20.55 7.05 21 6.5 21 Z M 13.75 9.667 L 10.25 9.667 C 9.7 9.667 9.25 10.117 9.25 10.667 L 9.25 20 C 9.25 20.55 9.7 21 10.25 21 L 13.75 21 C 14.3 21 14.75 20.55 14.75 20 L 14.75 10.667 C 14.75 10.117 14.3 9.667 13.75 9.667 Z M 21 3.667 L 17.5 3.667 C 16.95 3.667 16.5 4.117 16.5 4.667 L 16.5 20 C 16.5 20.55 16.95 21 17.5 21 L 21 21 C 21.55 21 22 20.55 22 20 L 22 4.667 C 22 4.117 21.55 3.667 21 3.667 Z"
            fill="#bc1efc"
            stroke-width="1"/>
    </g>
</svg>
