<svg
    xmlns="http://www.w3.org/2000/svg"
    viewBox="0 0 24 24"
    id="vector"
    width="24px"
    height="24px">
    <g id="group">
        <path
            id="path"
            d="M 6.5 21 L 3 21 C 2.45 21 2 20.55 2 20 L 2 13 C 2 12.45 2.45 12 3 12 L 6.5 12 C 7.05 12 7.5 12.45 7.5 13 L 7.5 20 C 7.5 20.55 7.05 21 6.5 21 Z M 13.75 9 L 10.25 9 C 9.7 9 9.25 9.45 9.25 10 L 9.25 20 C 9.25 20.55 9.7 21 10.25 21 L 13.75 21 C 14.3 21 14.75 20.55 14.75 20 L 14.75 10 C 14.75 9.45 14.3 9 13.75 9 Z M 21 15 L 17.5 15 C 16.95 15 16.5 15.45 16.5 16 L 16.5 20 C 16.5 20.55 16.95 21 17.5 21 L 21 21 C 21.55 21 22 20.55 22 20 L 22 16 C 22 15.45 21.55 15 21 15 Z"
            fill="#d821fe"
            stroke-width="1"/>
    </g>
</svg>
