<svg
    xmlns="http://www.w3.org/2000/svg"
    viewBox="0 0 24 24"
    id="vector"
    width="24px"
    height="24px">
    <g id="group">
        <path
            id="path"
            d="M 6.5 21 L 3 21 C 2.45 21 2 20.55 2 20 L 2 16 C 2 15.45 2.45 15 3 15 L 6.5 15 C 7.05 15 7.5 15.45 7.5 16 L 7.5 20 C 7.5 20.55 7.05 21 6.5 21 Z M 13.75 5 L 10.25 5 C 9.7 5 9.25 5.45 9.25 6 L 9.25 20 C 9.25 20.55 9.7 21 10.25 21 L 13.75 21 C 14.3 21 14.75 20.55 14.75 20 L 14.75 6 C 14.75 5.45 14.3 5 13.75 5 Z M 21 10 L 17.5 10 C 16.95 10 16.5 10.45 16.5 11 L 16.5 20 C 16.5 20.55 16.95 21 17.5 21 L 21 21 C 21.55 21 22 20.55 22 20 L 22 11 C 22 10.45 21.55 10 21 10 Z"
            fill="#d320fe"
            stroke-width="1"/>
    </g>
</svg>
