<svg
    xmlns="http://www.w3.org/2000/svg"
    viewBox="0 0 24 24"
    id="vector"
    width="24px"
    height="24px">
    <g id="group">
        <path
            id="path"
            d="M 6.5 21 L 3 21 C 2.45 21 2 20.55 2 20 L 2 16.667 C 2 16.117 2.45 15.667 3 15.667 L 6.5 15.667 C 7.05 15.667 7.5 16.117 7.5 16.667 L 7.5 20 C 7.5 20.55 7.05 21 6.5 21 Z M 13.75 8 L 10.25 8 C 9.7 8 9.25 8.45 9.25 9 L 9.25 20 C 9.25 20.55 9.7 21 10.25 21 L 13.75 21 C 14.3 21 14.75 20.55 14.75 20 L 14.75 9 C 14.75 8.45 14.3 8 13.75 8 Z M 21 3.667 L 17.5 3.667 C 16.95 3.667 16.5 4.117 16.5 4.667 L 16.5 20 C 16.5 20.55 16.95 21 17.5 21 L 21 21 C 21.55 21 22 20.55 22 20 L 22 4.667 C 22 4.117 21.55 3.667 21 3.667 Z"
            fill="#8e19fa"
            stroke-width="1"/>
    </g>
</svg>
