<svg
    xmlns="http://www.w3.org/2000/svg"
    viewBox="0 0 24 24"
    id="vector"
    width="24px"
    height="24px">
    <g id="group">
        <path
            id="path"
            d="M 6.5 21 L 3 21 C 2.45 21 2 20.55 2 20 L 2 12.667 C 2 12.117 2.45 11.667 3 11.667 L 6.5 11.667 C 7.05 11.667 7.5 12.117 7.5 12.667 L 7.5 20 C 7.5 20.55 7.05 21 6.5 21 Z M 13.75 11 L 10.25 11 C 9.7 11 9.25 11.45 9.25 12 L 9.25 20 C 9.25 20.55 9.7 21 10.25 21 L 13.75 21 C 14.3 21 14.75 20.55 14.75 20 L 14.75 12 C 14.75 11.45 14.3 11 13.75 11 Z M 21 5.667 L 17.5 5.667 C 16.95 5.667 16.5 6.117 16.5 6.667 L 16.5 20 C 16.5 20.55 16.95 21 17.5 21 L 21 21 C 21.55 21 22 20.55 22 20 L 22 6.667 C 22 6.117 21.55 5.667 21 5.667 Z"
            fill="#981afa"
            stroke-width="1"/>
    </g>
</svg>
