<svg
    xmlns="http://www.w3.org/2000/svg"
    viewBox="0 0 24 24"
    id="vector"
    width="24px"
    height="24px">
    <g id="group">
        <path
            id="path"
            d="M 6.5 21 L 3 21 C 2.45 21 2 20.55 2 20 L 2 4 C 2 3.45 2.45 3 3 3 L 6.5 3 C 7.05 3 7.5 3.45 7.5 4 L 7.5 20 C 7.5 20.55 7.05 21 6.5 21 Z M 13.75 17 L 10.25 17 C 9.7 17 9.25 17.45 9.25 18 L 9.25 20 C 9.25 20.55 9.7 21 10.25 21 L 13.75 21 C 14.3 21 14.75 20.55 14.75 20 L 14.75 18 C 14.75 17.45 14.3 17 13.75 17 Z M 21 13 L 17.5 13 C 16.95 13 16.5 13.45 16.5 14 L 16.5 20 C 16.5 20.55 16.95 21 17.5 21 L 21 21 C 21.55 21 22 20.55 22 20 L 22 14 C 22 13.45 21.55 13 21 13 Z"
            fill="#22c2fd"
            stroke-width="1"/>
    </g>
</svg>
